0
SECTION
2
HEADER
9
$ACADVER
1
AC1015
0
ENDSEC
0
SECTION
2
TABLES
0
TABLE
2
LAYER
70
3
0
LAYER
2
Marcador
70
0
62
7
6
CONTINUOUS
0
ENDTAB
0
ENDSEC
0
SECTION
2
BLOCKS
0
BLOCK
8
0
2
DelanteroBlock
70
0
10
0
20
0
3
DelanteroBlock
1

0
LWPOLYLINE
100
AcDbEntity
8
Delantero
100
AcDbPolyline
90
6
70
1
10
0
20
0
42
0.3
10
200
20
0
42
0.0
10
220
20
100
42
0.3
10
100
20
180
42
0.0
10
20
20
100
42
0.3
10
0
20
0
0
ENDBLK
0
BLOCK
8
0
2
EspaldaBlock
70
0
10
0
20
0
3
EspaldaBlock
1

0
LWPOLYLINE
100
AcDbEntity
8
Espalda
100
AcDbPolyline
90
6
70
1
10
0
20
0
42
0.3
10
180
20
0
42
0.0
10
200
20
120
42
0.3
10
100
20
180
42
0.0
10
20
20
100
42
0.3
10
0
20
0
0
ENDBLK
0
BLOCK
8
0
2
MangaBlock
70
0
10
0
20
0
3
MangaBlock
1

0
LWPOLYLINE
100
AcDbEntity
8
Manga
100
AcDbPolyline
90
8
70
1
10
0
20
0
42
0.4
10
160
20
0
42
0.0
10
200
20
80
42
0.4
10
160
20
160
42
0.0
10
60
20
160
42
0.4
10
20
20
80
42
0.0
10
0
20
0
0
ENDBLK
0
ENDSEC
0
SECTION
2
ENTITIES
0
INSERT
8
Marcador
2
DelanteroBlock
10
100
20
100
0
ATTRIB
8
Marcador
10
100
20
100
1
REPETICIONES
8
Marcador
1
2
0
ATTRIB
8
Marcador
10
100
20
80
1
ORIENTACION
8
Marcador
1
LIBRE
0
INSERT
8
Marcador
2
EspaldaBlock
10
400
20
100
0
ATTRIB
8
Marcador
10
400
20
100
1
REPETICIONES
8
Marcador
1
1
0
ATTRIB
8
Marcador
10
400
20
80
1
ORIENTACION
8
Marcador
1
RESTRINGIDA
0
INSERT
8
Marcador
2
MangaBlock
10
700
20
100
0
ATTRIB
8
Marcador
10
700
20
100
1
REPETICIONES
8
Marcador
1
3
0
ATTRIB
8
Marcador
10
700
20
80
1
ORIENTACION
8
Marcador
1
LIBRE
0
LWPOLYLINE
100
AcDbEntity
8
Marcador
100
AcDbPolyline
90
4
70
1
10
0
20
0
10
1000
20
0
10
1000
20
400
10
0
20
400
0
ENDSEC
0
EOF
