<svg width="90" height="90" version="1.1" xmlns="http://www.w3.org/2000/svg" desc="Created with imagetracer.js version 1.2.6" ><path fill="rgb(0,0,0)" stroke="rgb(0,0,0)" stroke-width="1" opacity="0" d="M 0 0 L 90 0 L 90 90 L 0 90 L 0 0 Z M 8 18 L 6 20 L 6 25 L 13 35 L 13 40 L 15 46 L 20 49 L 15 51 L 13 55 L 13 61 L 19 65 L 25 72 Q 33 74 37 70 L 42 63 L 43 67 Q 42 71 47 69 L 49 63 L 51 68 L 57 72 L 66 72 L 70 67 L 77 61 L 77 55 L 75 51 L 70 49 L 75 46 L 77 40 L 77 34 L 84 25 Q 85 19 83 18 Q 73 17 68 20 L 58 27 L 49 38 L 47 35 L 47 33 L 43 33 L 42 38 L 37 32 L 23 20 Q 17 17 8 18 Z " /><path fill="rgb(0,0,0)" stroke="rgb(0,0,0)" stroke-width="1" opacity="0" d="M 14.5 25 L 17 25.5 L 14.5 26 L 14.5 25 Z " /><path fill="rgb(0,0,0)" stroke="rgb(0,0,0)" stroke-width="1" opacity="0" d="M 73.5 25 L 76 25.5 L 73.5 26 L 73.5 25 Z " /><path fill="rgb(0,0,0)" stroke="rgb(0,0,0)" stroke-width="1" opacity="0" d="M 16 29 L 19 29.5 L 16 31 L 16 29 Z " /><path fill="rgb(0,0,0)" stroke="rgb(0,0,0)" stroke-width="1" opacity="0" d="M 71.5 29 Q 75.3 28 74 31 L 71.5 29 Z " /><path fill="rgb(0,0,0)" stroke="rgb(0,0,0)" stroke-width="1" opacity="0" d="M 24 30 L 26.5 30 L 34 37.5 L 32.5 37 L 24 33 L 24 30 Z " /><path fill="rgb(0,0,0)" stroke="rgb(0,0,0)" stroke-width="1" opacity="0" d="M 63.5 30 Q 67.7 28.9 66 33 L 56.5 38 L 63.5 30 Z " /><path fill="rgb(0,0,0)" stroke="rgb(0,0,0)" stroke-width="1" opacity="0" d="M 20.5 33 L 23 34.5 L 21.5 35 L 20.5 33 Z " /><path fill="rgb(0,0,0)" stroke="rgb(0,0,0)" stroke-width="1" opacity="0" d="M 68.5 33 L 70 33.5 L 67.5 35 L 68.5 33 Z " /><path fill="rgb(0,0,0)" stroke="rgb(0,0,0)" stroke-width="1" opacity="0" d="M 20 38 Q 30.7 36.1 35 41.5 Q 30.9 43.9 23.5 43 L 20 40.5 L 20 38 Z " /><path fill="rgb(0,0,0)" stroke="rgb(0,0,0)" stroke-width="1" opacity="0" d="M 60.5 38 L 69.5 38 L 70 40.5 Q 67.5 44.5 59.5 43 L 55 41.5 L 60.5 38 Z " /><path fill="rgb(0,0,0)" stroke="rgb(0,0,0)" stroke-width="1" opacity="0" d="M 25.5 53 L 27 53.5 L 21.5 56 L 22.5 54 L 25.5 53 Z " /><path fill="rgb(0,0,0)" stroke="rgb(0,0,0)" stroke-width="1" opacity="0" d="M 33.5 53 L 28.5 59 L 24 60 Q 22.5 56.2 25.5 57 L 33.5 53 Z " /><path fill="rgb(0,0,0)" stroke="rgb(0,0,0)" stroke-width="1" opacity="0" d="M 56.5 53 L 66 57 Q 67.5 60.7 64.5 60 Q 57.8 58.5 56.5 53 Z " /><path fill="rgb(0,0,0)" stroke="rgb(0,0,0)" stroke-width="1" opacity="0" d="M 63.5 53 L 69 55.5 L 67.5 56 L 63.5 54 L 63.5 53 Z " /><path fill="rgb(0,0,0)" stroke="rgb(0,0,0)" stroke-width="1" opacity="0" d="M 35.5 57 L 35 58.5 L 34 64 L 30.5 65 L 29 62.5 L 35.5 57 Z " /><path fill="rgb(0,0,0)" stroke="rgb(0,0,0)" stroke-width="1" opacity="0" d="M 54.5 57 L 61 62.5 L 59.5 65 L 56 64 L 54.5 57 Z " /><path fill="rgb(255,255,255)" stroke="rgb(255,255,255)" stroke-width="1" opacity="0.44313725490196076" d="M 7.5 18 L 6.5 20 L 7.5 18 Z " /><path fill="rgb(255,255,255)" stroke="rgb(255,255,255)" stroke-width="1" opacity="0.44313725490196076" d="M 13.5 18 L 17 18.5 L 13.5 19 L 13.5 18 Z " /><path fill="rgb(255,255,255)" stroke="rgb(255,255,255)" stroke-width="1" opacity="0.44313725490196076" d="M 73.5 18 L 77 18.5 L 73.5 19 L 73.5 18 Z " /><path fill="rgb(255,255,255)" stroke="rgb(255,255,255)" stroke-width="1" opacity="0.44313725490196076" d="M 82.5 18 L 83.5 20 L 82.5 18 Z " /><path fill="rgb(255,255,255)" stroke="rgb(255,255,255)" stroke-width="1" opacity="0.44313725490196076" d="M 21.5 20 L 24 21.5 L 22.5 21 L 21.5 20 Z " /><path fill="rgb(255,255,255)" stroke="rgb(255,255,255)" stroke-width="1" opacity="0.44313725490196076" d="M 67.5 20 L 69 20.5 L 66.5 22 L 67.5 20 Z " /><path fill="rgb(255,255,255)" stroke="rgb(255,255,255)" stroke-width="1" opacity="0.44313725490196076" d="M 25.5 22 L 37 31.5 L 41.5 38 L 42.5 35 L 43 39.5 L 40 37.5 L 27.5 24 L 25.5 22 Z " /><path fill="rgb(255,255,255)" stroke="rgb(255,255,255)" stroke-width="1" opacity="0.44313725490196076" d="M 64.5 22 L 63.5 24 L 56 29 L 47.5 40 L 47 35.5 L 48 35.5 L 48.5 38 L 57.5 27 L 64.5 22 Z " /><path fill="rgb(255,255,255)" stroke="rgb(255,255,255)" stroke-width="1" opacity="0.44313725490196076" d="M 6.5 23 L 14 34.5 L 14 39.5 L 13 39.5 L 13 34.5 L 7 26.5 L 6.5 23 Z " /><path fill="rgb(255,255,255)" stroke="rgb(255,255,255)" stroke-width="1" opacity="0.44313725490196076" d="M 83.5 23 L 84 24.5 L 77.5 33 L 80 29.5 L 83.5 23 Z " /><path fill="rgb(255,255,255)" stroke="rgb(255,255,255)" stroke-width="1" opacity="0.44313725490196076" d="M 13 24 L 19 25 Q 20.4 28.7 14.5 27 L 13 24 Z M 15 25 L 15 26 L 17 26 L 15 25 Z " /><path fill="rgb(255,255,255)" stroke="rgb(255,255,255)" stroke-width="1" opacity="0.44313725490196076" d="M 73.5 24 Q 77.9 22.5 77 25.5 Q 75.6 28.3 71 27 Q 69.9 24.3 72.5 25 L 73.5 24 Z M 74 25 L 74 26 L 76 26 L 74 25 Z " /><path fill="rgb(255,255,255)" stroke="rgb(255,255,255)" stroke-width="1" opacity="0.44313725490196076" d="M 21 27 Q 24 25.8 23 29.5 L 24.5 29 L 26.5 29 L 36 38.5 L 35 40.5 L 35.5 42 L 30 38.5 L 30.5 37 L 20 38 L 21.5 42 L 23 42.5 L 21.5 43 Q 18.5 42.5 19 38.5 L 20.5 37 L 29 36.5 L 28.5 35 L 32.5 37 L 26.5 30 Q 22.3 28.9 24 33 L 27 34.5 L 25.5 34 L 22.5 36 L 21.5 33 L 20 33.5 L 20.5 35 L 16 31.5 L 18.5 30 L 18.5 32 L 22.5 33 L 23 30.5 L 21 30.5 L 21 28.5 L 21 27 Z " /><path fill="rgb(255,255,255)" stroke="rgb(255,255,255)" stroke-width="1" opacity="0.44313725490196076" d="M 67 27 Q 69.7 25.9 69 28.5 L 68.5 31 L 67 30.5 L 67.5 33 L 72 31.5 L 71.5 30 L 74 31.5 L 66 36 Q 67.1 33.3 64.5 34 L 63 34.5 L 66 33 Q 67.7 28.9 63.5 30 L 57.5 37 L 61.5 35 L 61.5 37 L 69.5 37 L 71 38.5 Q 71.5 42.5 68.5 43 L 67 42.5 L 70 40.5 L 69.5 38 L 61.5 38 L 59.5 37 L 59.5 39 L 54.5 42 L 54 39.5 L 63.5 29 L 66.5 30 L 67 27 Z " /><path fill="rgb(255,255,255)" stroke="rgb(255,255,255)" stroke-width="1" opacity="0.44313725490196076" d="M 16.5 28 L 19 28.5 L 15.5 30 L 16.5 28 Z " /><path fill="rgb(255,255,255)" stroke="rgb(255,255,255)" stroke-width="1" opacity="0.44313725490196076" d="M 71.5 28 L 75 29.5 L 73.5 29 Q 70.5 29.5 71.5 28 Z " /><path fill="rgb(255,255,255)" stroke="rgb(255,255,255)" stroke-width="1" opacity="0.44313725490196076" d="M 76.5 34 L 77 39.5 L 76 39.5 L 76.5 34 Z " /><path fill="rgb(255,255,255)" stroke="rgb(255,255,255)" stroke-width="1" opacity="0.44313725490196076" d="M 14.5 42 L 18 46.5 L 16.5 46 Q 14.3 46.8 15 44.5 L 14.5 42 Z " /><path fill="rgb(255,255,255)" stroke="rgb(255,255,255)" stroke-width="1" opacity="0.44313725490196076" d="M 31.5 42 L 34 42.5 L 31.5 43 L 31.5 42 Z " /><path fill="rgb(255,255,255)" stroke="rgb(255,255,255)" stroke-width="1" opacity="0.44313725490196076" d="M 56.5 42 L 59 42.5 L 56.5 43 L 56.5 42 Z " /><path fill="rgb(255,255,255)" stroke="rgb(255,255,255)" stroke-width="1" opacity="0.44313725490196076" d="M 75.5 42 L 76 43.5 L 75 46 L 72.5 47 L 75 43.5 L 75.5 42 Z " /><path fill="rgb(255,255,255)" stroke="rgb(255,255,255)" stroke-width="1" opacity="0.44313725490196076" d="M 25.5 43 L 29 43.5 L 25.5 44 L 25.5 43 Z " /><path fill="rgb(255,255,255)" stroke="rgb(255,255,255)" stroke-width="1" opacity="0.44313725490196076" d="M 61.5 43 L 65 43.5 L 61.5 44 L 61.5 43 Z " /><path fill="rgb(255,255,255)" stroke="rgb(255,255,255)" stroke-width="1" opacity="0.44313725490196076" d="M 19.5 47 Q 23.3 46 22 49 Q 16.6 49.7 14 54.5 L 13.5 56 L 13 54.5 L 15 51 L 20 48.5 L 19.5 47 Z " /><path fill="rgb(255,255,255)" stroke="rgb(255,255,255)" stroke-width="1" opacity="0.44313725490196076" d="M 68 47 L 71 47.5 L 70.5 49 L 75 51 L 77 55.5 L 76 55.5 L 71.5 50 L 68 49 L 68 47 Z " /><path fill="rgb(255,255,255)" stroke="rgb(255,255,255)" stroke-width="1" opacity="0.44313725490196076" d="M 36.5 51 L 37 52.5 L 29.5 59 L 32.5 54 L 24 57 L 25 60.5 L 23 59.5 L 24 56.5 L 23.5 55 L 25.5 56 L 24.5 54 L 23 53.5 L 24.5 53 L 26.5 54 L 26.5 52 L 32.5 53 L 36.5 51 Z " /><path fill="rgb(255,255,255)" stroke="rgb(255,255,255)" stroke-width="1" opacity="0.44313725490196076" d="M 53.5 51 L 59.5 53 L 63.5 52 L 63.5 54 L 66.5 53 L 70 55.5 L 68.5 55 L 66 56.5 L 67 59.5 L 65 60.5 L 66 57 L 57.5 54 L 60.5 59 L 53 52.5 L 53.5 51 Z M 66 54 L 65 56 L 67 55 L 66 54 Z " /><path fill="rgb(255,255,255)" stroke="rgb(255,255,255)" stroke-width="1" opacity="0.44313725490196076" d="M 21.5 54 L 20.5 56 L 21.5 54 Z " /><path fill="rgb(255,255,255)" stroke="rgb(255,255,255)" stroke-width="1" opacity="0.44313725490196076" d="M 35.5 56 Q 37.8 55.3 37 57.5 L 33.5 65 L 32 64.5 L 34 64 L 35 58.5 L 31.5 61 L 29 62.5 L 31 65.5 L 29 66 L 28 62.5 L 35.5 56 Z " /><path fill="rgb(255,255,255)" stroke="rgb(255,255,255)" stroke-width="1" opacity="0.44313725490196076" d="M 53 56 L 62 62.5 L 61 66 L 59 65.5 L 61 62.5 L 55.5 58 L 55 59.5 L 56 64 L 58 64.5 L 56.5 65 L 53 56 Z " /><path fill="rgb(255,255,255)" stroke="rgb(255,255,255)" stroke-width="1" opacity="0.44313725490196076" d="M 42.5 58 L 43 65.5 L 42 65.5 L 41.5 63 L 36.5 70 L 31.5 72 L 31.5 71 L 38 67.5 L 42.5 58 Z " /><path fill="rgb(255,255,255)" stroke="rgb(255,255,255)" stroke-width="1" opacity="0.44313725490196076" d="M 47.5 58 L 53.5 69 L 59 71.5 L 56.5 72 L 51 67.5 L 48.5 63 L 47.5 66 L 47.5 58 Z " /><path fill="rgb(255,255,255)" stroke="rgb(255,255,255)" stroke-width="1" opacity="0.44313725490196076" d="M 13.5 59 L 17.5 64 L 22 67.5 L 23.5 70 L 27 71.5 L 24.5 72 L 18.5 65 L 13 60.5 L 13.5 59 Z " /><path fill="rgb(255,255,255)" stroke="rgb(255,255,255)" stroke-width="1" opacity="0.44313725490196076" d="M 76.5 59 L 77 60.5 L 70 66.5 L 65.5 72 L 63 71.5 L 68 68.5 L 71.5 64 L 76 60.5 L 76.5 59 Z " /><path fill="rgb(255,255,255)" stroke="rgb(255,255,255)" stroke-width="1" opacity="0.996078431372549" d="M 8.5 18 L 13 18.5 L 8.5 19 L 8.5 18 Z " /><path fill="rgb(255,255,255)" stroke="rgb(255,255,255)" stroke-width="1" opacity="0.996078431372549" d="M 77.5 18 L 82 18.5 L 77.5 19 L 77.5 18 Z " /><path fill="rgb(255,255,255)" stroke="rgb(255,255,255)" stroke-width="1" opacity="0.996078431372549" d="M 6.5 20 L 7 22.5 L 6 22.5 L 6.5 20 Z " /><path fill="rgb(255,255,255)" stroke="rgb(255,255,255)" stroke-width="1" opacity="0.996078431372549" d="M 83.5 20 L 84 22.5 L 83 22.5 L 83.5 20 Z " /><path fill="rgb(255,255,255)" stroke="rgb(255,255,255)" stroke-width="1" opacity="0.996078431372549" d="M 24.5 22 L 25.5 24 L 24.5 22 Z " /><path fill="rgb(255,255,255)" stroke="rgb(255,255,255)" stroke-width="1" opacity="0.996078431372549" d="M 65.5 22 L 64.5 24 L 65.5 22 Z " /><path fill="rgb(255,255,255)" stroke="rgb(255,255,255)" stroke-width="1" opacity="0.996078431372549" d="M 27.5 24 L 29.5 27 L 27.5 24 Z " /><path fill="rgb(255,255,255)" stroke="rgb(255,255,255)" stroke-width="1" opacity="0.996078431372549" d="M 62.5 24 L 60.5 27 L 62.5 24 Z " /><path fill="rgb(255,255,255)" stroke="rgb(255,255,255)" stroke-width="1" opacity="0.996078431372549" d="M 8.5 26 L 9.5 28 L 8.5 26 Z " /><path fill="rgb(255,255,255)" stroke="rgb(255,255,255)" stroke-width="1" opacity="0.996078431372549" d="M 19.5 26 L 21.5 26 L 24 27.5 L 22.5 31 L 23 29.5 Q 24 25.8 21 27 L 20 30.5 L 20.5 32 L 18 31.5 L 20 27.5 L 19.5 26 Z " /><path fill="rgb(255,255,255)" stroke="rgb(255,255,255)" stroke-width="1" opacity="0.996078431372549" d="M 67.5 26 L 69.5 27 L 71 26.5 L 71 28.5 L 72 31.5 L 69.5 32 L 69 29.5 Q 70 25.8 67 27 L 68 30.5 L 66 29.5 L 67.5 26 Z " /><path fill="rgb(255,255,255)" stroke="rgb(255,255,255)" stroke-width="1" opacity="0.996078431372549" d="M 81.5 26 L 80.5 28 L 81.5 26 Z " /><path fill="rgb(255,255,255)" stroke="rgb(255,255,255)" stroke-width="1" opacity="0.996078431372549" d="M 10.5 29 L 12.5 32 L 10.5 29 Z " /><path fill="rgb(255,255,255)" stroke="rgb(255,255,255)" stroke-width="1" opacity="0.996078431372549" d="M 27.5 29 L 35.5 38 L 27.5 29 Z " /><path fill="rgb(255,255,255)" stroke="rgb(255,255,255)" stroke-width="1" opacity="0.996078431372549" d="M 62.5 29 L 54.5 38 L 62.5 29 Z " /><path fill="rgb(255,255,255)" stroke="rgb(255,255,255)" stroke-width="1" opacity="0.996078431372549" d="M 79.5 29 L 77.5 32 L 79.5 29 Z " /><path fill="rgb(255,255,255)" stroke="rgb(255,255,255)" stroke-width="1" opacity="0.996078431372549" d="M 18.5 33 L 19.5 35 L 18.5 33 Z " /><path fill="rgb(255,255,255)" stroke="rgb(255,255,255)" stroke-width="1" opacity="0.996078431372549" d="M 44.5 33 L 47 34.5 L 46.5 36 L 46 34 Q 43.3 32.9 44 35.5 L 43 35.5 L 44.5 33 Z " /><path fill="rgb(255,255,255)" stroke="rgb(255,255,255)" stroke-width="1" opacity="0.996078431372549" d="M 71.5 33 L 70.5 35 L 71.5 33 Z " /><path fill="rgb(255,255,255)" stroke="rgb(255,255,255)" stroke-width="1" opacity="0.996078431372549" d="M 24 34 L 26 34.5 L 24 35.5 L 24 34 Z " /><path fill="rgb(255,255,255)" stroke="rgb(255,255,255)" stroke-width="1" opacity="0.996078431372549" d="M 37.5 34 L 39.5 37 L 37.5 34 Z " /><path fill="rgb(255,255,255)" stroke="rgb(255,255,255)" stroke-width="1" opacity="0.996078431372549" d="M 52.5 34 L 50.5 37 L 52.5 34 Z " /><path fill="rgb(255,255,255)" stroke="rgb(255,255,255)" stroke-width="1" opacity="0.996078431372549" d="M 64.5 34 Q 66.8 33.3 66 35.5 L 64.5 34 Z " /><path fill="rgb(255,255,255)" stroke="rgb(255,255,255)" stroke-width="1" opacity="0.996078431372549" d="M 40.5 38 L 41.5 40 L 40.5 38 Z " /><path fill="rgb(255,255,255)" stroke="rgb(255,255,255)" stroke-width="1" opacity="0.996078431372549" d="M 49.5 38 L 48.5 40 L 49.5 38 Z " /><path fill="rgb(255,255,255)" stroke="rgb(255,255,255)" stroke-width="1" opacity="0.996078431372549" d="M 14.5 39 L 15 41.5 L 14 41.5 L 14.5 39 Z " /><path fill="rgb(255,255,255)" stroke="rgb(255,255,255)" stroke-width="1" opacity="0.996078431372549" d="M 34.5 39 L 35.5 41 L 34.5 39 Z " /><path fill="rgb(255,255,255)" stroke="rgb(255,255,255)" stroke-width="1" opacity="0.996078431372549" d="M 55.5 39 L 54.5 41 L 55.5 39 Z " /><path fill="rgb(255,255,255)" stroke="rgb(255,255,255)" stroke-width="1" opacity="0.996078431372549" d="M 75.5 39 L 76 41.5 L 75 41.5 L 75.5 39 Z " /><path fill="rgb(255,255,255)" stroke="rgb(255,255,255)" stroke-width="1" opacity="0.996078431372549" d="M 19.5 41 L 20.5 43 L 19.5 41 Z " /><path fill="rgb(255,255,255)" stroke="rgb(255,255,255)" stroke-width="1" opacity="0.996078431372549" d="M 70.5 41 L 69.5 43 L 70.5 41 Z " /><path fill="rgb(255,255,255)" stroke="rgb(255,255,255)" stroke-width="1" opacity="0.996078431372549" d="M 22 47 L 24 47.5 L 22 48.5 L 22 47 Z " /><path fill="rgb(255,255,255)" stroke="rgb(255,255,255)" stroke-width="1" opacity="0.996078431372549" d="M 66.5 47 Q 68.8 46.3 68 48.5 L 66.5 47 Z " /><path fill="rgb(255,255,255)" stroke="rgb(255,255,255)" stroke-width="1" opacity="0.996078431372549" d="M 34.5 54 L 35 56.5 L 31.5 60 L 30 58.5 L 34.5 54 Z " /><path fill="rgb(255,255,255)" stroke="rgb(255,255,255)" stroke-width="1" opacity="0.996078431372549" d="M 55.5 54 L 60 58.5 L 58.5 60 L 55 56.5 L 55.5 54 Z " /><path fill="rgb(255,255,255)" stroke="rgb(255,255,255)" stroke-width="1" opacity="0.996078431372549" d="M 24.5 55 L 26 55.5 L 20.5 57 L 20.5 56 L 24.5 55 Z " /><path fill="rgb(255,255,255)" stroke="rgb(255,255,255)" stroke-width="1" opacity="0.996078431372549" d="M 36.5 55 Q 38.8 54.3 38 56.5 L 36.5 55 Z " /><path fill="rgb(255,255,255)" stroke="rgb(255,255,255)" stroke-width="1" opacity="0.996078431372549" d="M 52 55 L 54 55.5 L 52 56.5 L 52 55 Z " /><path fill="rgb(255,255,255)" stroke="rgb(255,255,255)" stroke-width="1" opacity="0.996078431372549" d="M 64.5 55 L 70 56.5 L 66.5 57 L 64.5 55 Z " /><path fill="rgb(255,255,255)" stroke="rgb(255,255,255)" stroke-width="1" opacity="0.996078431372549" d="M 13.5 56 L 14 58.5 L 13 58.5 L 13.5 56 Z " /><path fill="rgb(255,255,255)" stroke="rgb(255,255,255)" stroke-width="1" opacity="0.996078431372549" d="M 76.5 56 L 77 58.5 L 76 58.5 L 76.5 56 Z " /><path fill="rgb(255,255,255)" stroke="rgb(255,255,255)" stroke-width="1" opacity="0.996078431372549" d="M 28.5 59 Q 31.5 60.5 28.5 62 L 28.5 59 Z " /><path fill="rgb(255,255,255)" stroke="rgb(255,255,255)" stroke-width="1" opacity="0.996078431372549" d="M 61.5 59 L 61.5 62 Q 58.5 60.5 61.5 59 Z " /><path fill="rgb(255,255,255)" stroke="rgb(255,255,255)" stroke-width="1" opacity="0.996078431372549" d="M 14.5 60 L 17.5 64 L 14.5 60 Z " /><path fill="rgb(255,255,255)" stroke="rgb(255,255,255)" stroke-width="1" opacity="0.996078431372549" d="M 75.5 60 L 72.5 64 L 75.5 60 Z " /><path fill="rgb(255,255,255)" stroke="rgb(255,255,255)" stroke-width="1" opacity="0.996078431372549" d="M 35.5 62 L 36 63.5 L 34 64.5 L 35.5 62 Z " /><path fill="rgb(255,255,255)" stroke="rgb(255,255,255)" stroke-width="1" opacity="0.996078431372549" d="M 54.5 62 L 56 64.5 L 54 63.5 L 54.5 62 Z " /><path fill="rgb(255,255,255)" stroke="rgb(255,255,255)" stroke-width="1" opacity="0.996078431372549" d="M 39.5 64 L 38.5 66 L 39.5 64 Z " /><path fill="rgb(255,255,255)" stroke="rgb(255,255,255)" stroke-width="1" opacity="0.996078431372549" d="M 50.5 64 L 51.5 66 L 50.5 64 Z " /><path fill="rgb(255,255,255)" stroke="rgb(255,255,255)" stroke-width="1" opacity="0.996078431372549" d="M 37.5 67 L 36.5 69 L 37.5 67 Z " /><path fill="rgb(255,255,255)" stroke="rgb(255,255,255)" stroke-width="1" opacity="0.996078431372549" d="M 52.5 67 L 53.5 69 L 52.5 67 Z " /><path fill="rgb(255,255,255)" stroke="rgb(255,255,255)" stroke-width="1" opacity="0.996078431372549" d="M 22.5 68 L 23.5 70 L 22.5 68 Z " /><path fill="rgb(255,255,255)" stroke="rgb(255,255,255)" stroke-width="1" opacity="0.996078431372549" d="M 67.5 68 L 66.5 70 L 67.5 68 Z " /><path fill="rgb(255,255,255)" stroke="rgb(255,255,255)" stroke-width="1" opacity="0.996078431372549" d="M 34.5 69 L 33.5 71 L 34.5 69 Z " /><path fill="rgb(255,255,255)" stroke="rgb(255,255,255)" stroke-width="1" opacity="0.996078431372549" d="M 55.5 69 L 56.5 71 L 55.5 69 Z " /><path fill="rgb(255,255,255)" stroke="rgb(255,255,255)" stroke-width="1" opacity="0.996078431372549" d="M 27.5 71 L 31 71.5 L 27.5 72 L 27.5 71 Z " /><path fill="rgb(255,255,255)" stroke="rgb(255,255,255)" stroke-width="1" opacity="0.996078431372549" d="M 59.5 71 L 63 71.5 L 59.5 72 L 59.5 71 Z " /><path fill="rgb(255,255,255)" stroke="rgb(255,255,255)" stroke-width="1" opacity="1" d="M 7 19 L 19.5 20 Q 30 25 37 33.5 L 41.5 40 L 44 38.5 L 43 36.5 L 44 34 Q 46.7 32.9 46 35.5 L 46 37.5 L 47.5 40 L 50 38.5 L 59.5 27 L 73.5 19 L 83 19 L 83 23.5 L 76 33.5 L 75 43.5 L 72.5 46 L 66 47.5 L 75 53.5 L 76 59.5 L 64.5 71 L 57.5 71 L 52 66.5 L 47.5 57 L 46 68 Q 43 69.3 44 65.5 L 42.5 57 Q 40.6 64.6 35.5 69 Q 32.9 72.4 25.5 71 L 14 59.5 L 14 55.5 L 17.5 51 L 24 47.5 Q 17.3 47.7 15 43.5 L 14 33.5 L 7 23.5 L 7 19 Z M 13 24 L 13 27 L 20 27 Q 19 23 13 24 Z M 73 24 L 70 27 L 77 27 Q 79 22 73 24 Z M 22 26 Q 20 29 15 28 L 17 32 Q 19 31 18 34 L 22 36 L 26 35 L 29 36 L 29 37 L 19 37 L 19 42 L 24 44 Q 32 45 36 42 L 36 38 L 28 29 Q 23 30 24 28 L 22 26 Z M 68 26 L 66 28 Q 67 30 63 29 L 54 38 L 54 43 L 60 44 L 70 43 Q 72 42 71 39 L 70 37 L 61 37 L 64 35 L 66 36 Q 71 37 72 34 Q 71 31 74 32 L 75 28 Q 70 29 68 26 Z M 35 51 L 32 53 L 30 52 Q 23 51 20 54 Q 19 59 23 57 L 23 61 Q 34 60 38 52 L 35 51 Z M 53 51 Q 55 58 64 61 L 67 61 L 67 57 Q 72 59 70 54 L 66 52 Q 61 51 60 53 L 53 51 Z M 37 55 L 28 62 Q 27 65 30 66 L 36 64 L 35 62 L 38 57 Q 39 54 37 55 Z M 52 55 L 55 62 L 54 64 L 61 66 Q 63 65 62 62 L 56 56 L 52 55 Z " /><path fill="rgb(255,255,255)" stroke="rgb(255,255,255)" stroke-width="1" opacity="1" d="M 20.5 30 L 23 31.5 L 21.5 32 L 20.5 30 Z " /><path fill="rgb(255,255,255)" stroke="rgb(255,255,255)" stroke-width="1" opacity="1" d="M 69.5 30 L 68.5 32 L 67 31.5 L 69.5 30 Z " /></svg>