<?xml version="1.0" standalone="no"?>
<!DOCTYPE svg PUBLIC "-//W3C//DTD SVG 20010904//EN"
 "http://www.w3.org/TR/2001/REC-SVG-20010904/DTD/svg10.dtd">
<svg version="1.0" xmlns="http://www.w3.org/2000/svg"
 width="567.000000pt" height="459.000000pt" viewBox="0 0 567.000000 459.000000"
 preserveAspectRatio="xMidYMid meet">

<g transform="translate(0.000000,459.000000) scale(0.100000,-0.100000)"
fill="#000000" stroke="none">
<path d="M965 4493 c-74 -11 -197 -48 -272 -83 -273 -128 -468 -361 -546 -652
l-22 -83 0 -1395 c0 -1324 1 -1398 18 -1460 34 -120 78 -220 136 -308 166
-253 420 -407 729 -442 68 -8 629 -10 1892 -8 1682 4 1800 5 1869 22 377 91
653 361 754 740 l22 81 0 1380 0 1380 -23 85 c-104 378 -393 654 -766 731 -87
18 -165 19 -1926 17 -1009 0 -1848 -3 -1865 -5z m735 -1173 c0 -18 7 -20 75
-20 68 0 75 -2 75 -20 0 -17 7 -20 45 -20 38 0 45 -3 45 -20 0 -16 7 -20 34
-20 25 0 35 -5 39 -20 4 -15 14 -20 41 -20 25 0 36 -4 36 -15 0 -8 9 -15 20
-15 13 0 20 -7 20 -19 0 -14 10 -21 35 -25 21 -4 35 -13 35 -21 0 -9 9 -15 21
-15 12 0 23 -8 26 -20 3 -11 14 -20 24 -20 12 0 19 -7 19 -20 0 -13 7 -20 20
-20 13 0 20 -7 20 -20 0 -13 7 -20 20 -20 13 0 20 -7 20 -20 0 -13 7 -20 20
-20 13 0 20 -7 20 -20 0 -13 7 -20 20 -20 13 0 20 -7 20 -20 0 -11 6 -20 14
-20 7 0 16 -9 19 -20 3 -11 12 -20 20 -20 8 0 17 -9 20 -20 3 -11 12 -20 21
-20 9 0 16 -8 16 -20 0 -13 7 -20 20 -20 13 0 20 -7 20 -20 0 -11 7 -20 15
-20 8 0 17 -14 21 -35 4 -25 11 -35 25 -35 12 0 19 -7 19 -20 0 -11 6 -20 13
-20 6 0 22 -3 34 -6 20 -6 21 -2 25 89 1 53 7 99 11 104 10 9 133 11 142 1 4
-3 8 -48 9 -100 4 -99 1 -94 56 -90 13 1 20 9 20 22 0 11 7 20 15 20 8 0 17
14 20 34 5 22 14 36 26 39 10 3 19 12 19 20 0 8 9 17 20 20 11 3 20 12 20 21
0 9 7 16 15 16 8 0 15 9 15 20 0 13 7 20 20 20 13 0 20 7 20 20 0 13 7 20 20
20 13 0 20 7 20 20 0 13 7 20 20 20 13 0 20 7 20 20 0 13 7 20 20 20 13 0 20
7 20 20 0 13 7 20 20 20 13 0 20 7 20 20 0 13 7 20 20 20 13 0 20 7 20 20 0
13 7 20 20 20 13 0 20 7 20 20 0 13 7 20 20 20 11 0 20 7 20 15 0 8 14 17 35
21 20 3 35 12 35 20 0 8 9 14 21 14 12 0 23 8 26 20 4 15 14 20 39 20 27 0 34
4 34 20 0 17 7 20 40 20 33 0 40 3 40 20 0 17 7 20 40 20 33 0 40 3 40 20 0
18 7 20 75 20 68 0 75 2 75 20 0 19 7 20 180 20 173 0 180 -1 180 -20 0 -13 7
-20 20 -20 19 0 20 -7 20 -92 0 -106 -6 -138 -26 -138 -8 0 -14 -10 -14 -25 0
-18 -5 -25 -20 -25 -16 0 -20 -7 -20 -35 0 -28 -4 -35 -20 -35 -13 0 -20 -7
-20 -19 0 -10 -9 -21 -20 -24 -12 -3 -20 -14 -20 -26 0 -12 -6 -21 -15 -21 -8
0 -17 -14 -21 -35 -4 -25 -11 -35 -25 -35 -12 0 -19 -7 -19 -20 0 -11 -7 -20
-15 -20 -11 0 -15 -13 -15 -54 0 -97 -12 -176 -26 -176 -11 0 -14 -22 -14 -96
0 -87 -2 -96 -20 -101 -11 -3 -20 -14 -20 -24 0 -12 -7 -19 -20 -19 -13 0 -20
-7 -20 -20 0 -13 -7 -20 -20 -20 -13 0 -20 -7 -20 -20 0 -17 -7 -20 -40 -20
-27 0 -40 -4 -40 -14 0 -8 -15 -17 -35 -20 -21 -4 -35 -13 -35 -21 0 -10 11
-15 35 -15 28 0 35 -4 35 -20 0 -17 7 -20 40 -20 33 0 40 -3 40 -20 0 -13 7
-20 20 -20 13 0 20 -7 20 -20 0 -13 7 -20 20 -20 13 0 20 -7 20 -20 0 -13 7
-20 20 -20 16 0 20 -7 20 -34 0 -25 5 -35 20 -39 18 -5 20 -14 20 -90 0 -102
-8 -147 -26 -147 -8 0 -14 -9 -14 -20 0 -13 -7 -20 -20 -20 -13 0 -20 -7 -20
-20 0 -17 -7 -20 -40 -20 -33 0 -40 -3 -40 -20 0 -13 -7 -20 -20 -20 -13 0
-20 -7 -20 -20 0 -13 -7 -20 -20 -20 -13 0 -20 -7 -20 -20 0 -13 -7 -20 -20
-20 -13 0 -20 -7 -20 -20 0 -13 -7 -20 -20 -20 -13 0 -20 -7 -20 -20 0 -11 -7
-20 -15 -20 -8 0 -15 -9 -15 -20 0 -13 -7 -20 -20 -20 -13 0 -20 -7 -20 -20 0
-13 -7 -20 -20 -20 -12 0 -20 -7 -20 -16 0 -9 -9 -18 -20 -21 -11 -3 -20 -11
-20 -18 0 -18 -47 -25 -160 -25 -113 0 -160 7 -160 25 0 8 -18 16 -40 20 -25
4 -40 12 -40 21 0 8 -7 14 -16 14 -9 0 -18 9 -21 20 -3 11 -14 20 -24 20 -12
0 -19 7 -19 19 0 10 -9 21 -20 24 -11 3 -20 12 -20 21 0 9 -7 16 -16 16 -9 0
-18 9 -21 20 -3 11 -11 20 -18 20 -8 0 -16 17 -20 40 -4 25 -12 40 -21 40 -9
0 -14 12 -14 35 0 28 -4 35 -20 35 -17 0 -20 7 -20 40 0 29 -4 40 -15 40 -12
0 -15 -17 -15 -94 0 -130 -10 -216 -25 -216 -7 0 -15 -9 -18 -20 -4 -16 -14
-20 -46 -20 -34 0 -41 3 -41 20 0 13 -7 20 -20 20 -19 0 -20 7 -20 155 0 131
-2 155 -15 155 -10 0 -15 -11 -15 -35 0 -28 -4 -35 -20 -35 -17 0 -20 -7 -20
-40 0 -33 -3 -40 -20 -40 -17 0 -20 -7 -20 -40 0 -33 -3 -40 -20 -40 -13 0
-20 -7 -20 -20 0 -13 -7 -20 -20 -20 -13 0 -20 -7 -20 -20 0 -13 -7 -20 -20
-20 -13 0 -20 -7 -20 -20 0 -13 -7 -20 -20 -20 -13 0 -20 -7 -20 -20 0 -13 -7
-20 -20 -20 -11 0 -20 -7 -20 -15 0 -8 -14 -17 -35 -21 -19 -3 -35 -12 -35
-19 0 -16 -55 -25 -166 -25 -109 0 -154 8 -154 26 0 8 -9 14 -20 14 -13 0 -20
7 -20 20 0 13 -7 20 -20 20 -13 0 -20 7 -20 20 0 13 -7 20 -20 20 -13 0 -20 7
-20 20 0 13 -7 20 -20 20 -13 0 -20 7 -20 20 0 13 -7 20 -20 20 -13 0 -20 7
-20 19 0 10 -9 21 -20 24 -11 3 -20 12 -20 21 0 9 -7 16 -15 16 -8 0 -15 9
-15 20 0 15 -7 20 -25 20 -18 0 -25 5 -25 20 0 16 -7 20 -35 20 -28 0 -35 4
-35 20 0 13 -7 20 -20 20 -13 0 -20 7 -20 20 0 11 -6 20 -14 20 -20 0 -26 32
-26 143 0 90 1 97 20 97 16 0 20 7 20 35 0 28 4 35 20 35 13 0 20 7 20 20 0
13 7 20 20 20 13 0 20 7 20 20 0 13 7 20 20 20 13 0 20 7 20 20 0 16 7 20 35
20 28 0 35 4 35 20 0 17 7 20 40 20 52 0 56 26 5 36 -20 3 -35 12 -35 20 0 10
-13 14 -40 14 -33 0 -40 3 -40 20 0 13 -7 20 -20 20 -13 0 -20 7 -20 20 0 13
-7 20 -20 20 -13 0 -20 7 -20 20 0 13 -7 20 -20 20 -19 0 -20 7 -20 100 0 78
-3 100 -14 100 -20 0 -26 32 -26 138 0 85 -1 92 -20 92 -13 0 -20 7 -20 20 0
11 -6 20 -14 20 -8 0 -17 15 -20 34 -4 22 -13 36 -26 39 -12 3 -20 14 -20 26
0 14 -6 21 -20 21 -13 0 -20 7 -20 20 0 11 -7 20 -15 20 -8 0 -17 14 -21 35
-3 20 -12 35 -20 35 -8 0 -14 9 -14 21 0 12 -8 23 -19 26 -15 4 -20 17 -23 71
-7 107 1 162 23 162 12 0 19 7 19 20 0 19 7 20 175 20 168 0 175 -1 175 -20z"/>
<path d="M1590 3045 c0 -12 17 -15 90 -15 73 0 90 3 90 15 0 12 -17 15 -90 15
-73 0 -90 -3 -90 -15z"/>
<path d="M3890 3045 c0 -12 17 -15 95 -15 78 0 95 3 95 15 0 12 -17 15 -95 15
-78 0 -95 -3 -95 -15z"/>
<path d="M1900 2925 c0 -42 3 -55 15 -55 8 0 15 9 15 20 0 13 7 20 20 20 16 0
20 7 20 35 0 33 -2 35 -35 35 l-35 0 0 -55z"/>
<path d="M3700 2945 c0 -24 5 -35 15 -35 8 0 15 -9 15 -20 0 -13 7 -20 20 -20
18 0 20 7 20 55 l0 55 -35 0 c-33 0 -35 -2 -35 -35z"/>
<path d="M1700 2870 l0 -40 40 0 c33 0 40 3 40 20 0 11 7 20 15 20 8 0 15 9
15 20 0 18 -7 20 -55 20 l-55 0 0 -40z"/>
<path d="M3850 2890 c0 -13 7 -20 20 -20 13 0 20 -7 20 -20 0 -16 7 -20 35
-20 34 0 35 1 35 40 l0 40 -55 0 c-48 0 -55 -2 -55 -20z"/>
<path d="M2016 2839 c-11 -57 -7 -81 14 -86 11 -3 20 -11 20 -18 0 -8 17 -16
40 -20 23 -4 40 -12 40 -20 0 -8 17 -16 40 -20 23 -4 40 -12 40 -20 0 -8 17
-16 40 -20 23 -4 40 -12 40 -20 0 -7 16 -16 35 -19 21 -4 35 -13 35 -21 0 -8
9 -15 20 -15 13 0 20 7 20 20 0 11 -7 20 -15 20 -8 0 -17 14 -21 35 -4 25 -11
35 -25 35 -12 0 -19 7 -19 20 0 13 -7 20 -20 20 -13 0 -20 7 -20 20 0 13 -7
20 -20 20 -13 0 -20 7 -20 20 0 13 -7 20 -20 20 -13 0 -20 7 -20 20 0 13 -7
20 -20 20 -11 0 -20 6 -20 14 0 17 -31 26 -91 26 -44 0 -47 -2 -53 -31z"/>
<path d="M3523 2863 c-13 -2 -23 -11 -23 -19 0 -8 -9 -14 -20 -14 -13 0 -20
-7 -20 -20 0 -13 -7 -20 -20 -20 -13 0 -20 -7 -20 -20 0 -13 -7 -20 -20 -20
-13 0 -20 -7 -20 -20 0 -11 -6 -20 -14 -20 -7 0 -16 -9 -19 -20 -3 -11 -12
-20 -20 -20 -9 0 -17 -13 -21 -34 -4 -22 -13 -36 -26 -39 -26 -7 -26 -37 0
-37 11 0 20 6 20 14 0 9 15 17 40 21 23 4 40 12 40 20 0 8 17 16 40 20 24 4
40 12 40 21 0 8 15 16 40 20 22 4 40 12 40 19 0 7 16 16 35 19 21 4 35 13 35
21 0 8 9 15 20 15 18 0 20 7 20 60 l0 60 -52 -1 c-29 -1 -63 -4 -75 -6z"/>
<path d="M1820 2756 c0 -32 2 -35 40 -41 25 -4 40 -12 40 -21 0 -10 14 -14 55
-14 42 0 55 3 55 15 0 8 -9 15 -20 15 -13 0 -20 7 -20 20 0 17 -7 20 -40 20
-33 0 -40 3 -40 20 0 16 -7 20 -35 20 -33 0 -35 -2 -35 -34z"/>
<path d="M3770 2770 c0 -16 -7 -20 -35 -20 -28 0 -35 -4 -35 -20 0 -13 -7 -20
-20 -20 -11 0 -20 -7 -20 -15 0 -12 13 -15 55 -15 41 0 55 4 55 14 0 9 15 17
40 21 38 6 40 9 40 41 0 33 -1 34 -40 34 -33 0 -40 -3 -40 -20z"/>
<path d="M1900 2574 c0 -9 -9 -18 -20 -21 -17 -5 -20 -14 -20 -59 0 -41 4 -54
15 -54 8 0 15 -9 15 -20 0 -17 7 -20 39 -20 30 0 40 -4 44 -20 5 -19 14 -20
145 -20 156 0 202 6 202 26 0 10 16 14 60 14 53 0 60 2 60 20 0 13 -7 20 -20
20 -13 0 -20 7 -20 20 0 16 -7 20 -35 20 -23 0 -35 5 -35 14 0 9 -15 17 -40
21 -25 4 -40 12 -40 21 0 9 -11 14 -29 14 -49 0 -91 12 -91 26 0 8 -9 14 -20
14 -13 0 -20 -7 -20 -20 0 -15 -7 -20 -29 -20 -49 0 -91 12 -91 26 0 9 -12 14
-35 14 -25 0 -35 -4 -35 -16z"/>
<path d="M3530 2576 c0 -16 -30 -26 -77 -26 -21 0 -33 -5 -33 -14 0 -13 -41
-26 -86 -26 -15 0 -24 -6 -24 -15 0 -9 -9 -15 -21 -15 -12 0 -23 -8 -26 -19
-3 -11 -13 -21 -24 -24 -10 -3 -19 -12 -19 -21 0 -13 12 -16 60 -16 44 0 60
-4 60 -14 0 -20 46 -26 207 -26 136 0 145 1 150 20 4 15 14 20 39 20 27 0 34
4 34 20 0 13 7 20 20 20 18 0 20 7 20 55 0 48 -2 55 -20 55 -13 0 -20 7 -20
20 0 16 -7 20 -34 20 -25 0 -35 -5 -39 -20 -4 -17 -14 -20 -62 -20 -48 0 -58
3 -62 20 -6 22 -43 28 -43 6z"/>
<path d="M2433 2003 c-13 -2 -23 -11 -23 -19 0 -10 -12 -14 -40 -14 -33 0 -40
-3 -40 -20 0 -17 -7 -20 -39 -20 -30 0 -40 -4 -44 -20 -4 -15 -14 -20 -41 -20
-24 0 -36 -5 -36 -14 0 -13 -41 -26 -86 -26 -15 0 -24 -6 -24 -16 0 -9 -9 -18
-19 -21 -21 -5 -31 -31 -31 -80 l0 -33 60 0 c53 0 60 2 60 20 0 17 7 20 40 20
33 0 40 3 40 20 0 13 7 20 20 20 11 0 20 6 20 14 0 7 9 16 20 19 11 3 20 12
20 21 0 9 13 18 35 22 25 4 35 11 35 25 0 12 7 19 20 19 11 0 20 7 20 15 0 8
9 15 20 15 13 0 20 7 20 20 0 13 7 20 20 20 13 0 20 7 20 20 0 20 -5 21 -47
13z"/>
<path d="M3190 1991 c0 -14 6 -21 20 -21 13 0 20 -7 20 -20 0 -13 7 -20 20
-20 11 0 20 -6 20 -14 0 -7 9 -16 20 -19 11 -3 20 -12 20 -21 0 -9 13 -18 35
-22 25 -4 35 -11 35 -25 0 -12 7 -19 20 -19 11 0 20 -7 20 -15 0 -8 9 -15 20
-15 13 0 20 -7 20 -20 0 -17 7 -20 40 -20 33 0 40 -3 40 -20 0 -18 7 -20 55
-20 l55 0 0 55 c0 48 -2 55 -20 55 -13 0 -20 7 -20 20 0 16 -7 20 -32 20 -48
0 -78 10 -78 26 0 10 -13 14 -40 14 -33 0 -40 3 -40 20 0 17 -7 20 -40 20 -33
0 -40 3 -40 20 0 17 -7 20 -40 20 -29 0 -40 4 -40 15 0 8 -6 15 -12 15 -7 0
-23 3 -35 6 -19 5 -23 2 -23 -15z"/>
<path d="M2020 1950 c0 -17 -7 -20 -40 -20 -33 0 -40 -3 -40 -20 0 -13 -7 -20
-20 -20 -11 0 -20 -7 -20 -15 0 -10 11 -15 35 -15 23 0 35 5 35 14 0 9 15 17
40 21 25 4 40 12 40 21 0 9 11 14 33 14 47 0 77 10 77 26 0 11 -17 14 -70 14
-63 0 -70 -2 -70 -20z"/>
<path d="M3500 1956 c0 -13 41 -26 86 -26 14 0 24 -6 24 -14 0 -9 15 -17 40
-21 25 -4 40 -12 40 -21 0 -10 12 -14 40 -14 29 0 40 4 40 15 0 8 -9 15 -20
15 -13 0 -20 7 -20 20 0 17 -7 20 -40 20 -33 0 -40 3 -40 20 0 18 -7 20 -75
20 -57 0 -75 -3 -75 -14z"/>
<path d="M2480 1835 c0 -8 9 -15 20 -15 11 0 20 7 20 15 0 8 -9 15 -20 15 -11
0 -20 -7 -20 -15z"/>
<path d="M3150 1835 c0 -8 7 -15 15 -15 8 0 15 7 15 15 0 8 -7 15 -15 15 -8 0
-15 -7 -15 -15z"/>
<path d="M2440 1795 c0 -8 -7 -15 -16 -15 -9 0 -18 -9 -21 -20 -3 -13 -17 -22
-39 -26 -24 -4 -34 -12 -34 -25 0 -12 -7 -19 -20 -19 -11 0 -20 -6 -20 -14 0
-9 -15 -17 -40 -21 l-40 -7 0 -74 0 -74 56 0 c47 0 57 3 61 20 4 15 14 20 38
20 28 0 33 4 39 30 3 17 3 44 0 60 -6 26 -4 30 15 30 18 0 21 6 21 40 0 33 3
40 20 40 16 0 20 7 20 35 0 28 -4 35 -20 35 -11 0 -20 -7 -20 -15z"/>
<path d="M3190 1775 c0 -28 4 -35 20 -35 17 0 20 -7 20 -40 0 -29 4 -40 15
-40 12 0 15 -13 15 -60 l0 -60 40 0 c33 0 40 -3 40 -20 0 -18 7 -20 54 -20
l55 0 6 44 c4 24 4 58 0 75 -5 25 -13 32 -41 37 -19 3 -34 12 -34 20 0 8 -9
14 -20 14 -13 0 -20 7 -20 19 0 13 -10 21 -34 25 -22 4 -36 13 -39 26 -3 12
-14 20 -26 20 -12 0 -21 6 -21 15 0 8 -7 15 -15 15 -10 0 -15 -11 -15 -35z"/>
</g>
</svg>
