  0
SECTION
  2
HEADER
  9
$ACADVER
  1
AC1018
  9
$ACADMAINTVER
 70
     104
  9
$DWGCODEPAGE
  3
ANSI_1252
  9
$INSBASE
 10
0.0
 20
0.0
 30
0.0
  9
$EXTMIN
 10
179.3517519679044
 20
234.7352363252878
 30
0.0
  9
$EXTMAX
 10
277.8764334791447
 20
368.2499916442583
 30
0.0
  9
$LIMMIN
 10
0.0
 20
0.0
  9
$LIMMAX
 10
420.0
 20
297.0
  9
$ORTHOMODE
 70
     0
  9
$REGENMODE
 70
     1
  9
$FILLMODE
 70
     1
  9
$QTEXTMODE
 70
     0
  9
$MIRRTEXT
 70
     1
  9
$LTSCALE
 40
1.0
  9
$ATTMODE
 70
     1
  9
$TEXTSIZE
 40
2.5
  9
$TRACEWID
 40
1.0
  9
$TEXTSTYLE
  7
Standard
  9
$CLAYER
  8
0
  9
$CELTYPE
  6
ByLayer
  9
$CECOLOR
 62
   256
  9
$CELTSCALE
 40
1.0
  9
$DISPSILH
 70
     0
  9
$DIMSCALE
 40
1.0
  9
$DIMASZ
 40
2.5
  9
$DIMEXO
 40
0.625
  9
$DIMDLI
 40
3.75
  9
$DIMRND
 40
0.0
  9
$DIMDLE
 40
0.0
  9
$DIMEXE
 40
1.25
  9
$DIMTP
 40
0.0
  9
$DIMTM
 40
0.0
  9
$DIMTXT
 40
2.5
  9
$DIMCEN
 40
2.5
  9
$DIMTSZ
 40
0.0
  9
$DIMTOL
 70
     0
  9
$DIMLIM
 70
     0
  9
$DIMTIH
 70
     0
  9
$DIMTOH
 70
     0
  9
$DIMSE1
 70
     0
  9
$DIMSE2
 70
     0
  9
$DIMTAD
 70
     1
  9
$DIMZIN
 70
     8
  9
$DIMBLK
  1

  9
$DIMASO
 70
     1
  9
$DIMSHO
 70
     1
  9
$DIMPOST
  1

  9
$DIMAPOST
  1

  9
$DIMALT
 70
     0
  9
$DIMALTD
 70
     3
  9
$DIMALTF
 40
0.03937007874016
  9
$DIMLFAC
 40
1.0
  9
$DIMTOFL
 70
     1
  9
$DIMTVP
 40
0.0
  9
$DIMTIX
 70
     0
  9
$DIMSOXD
 70
     0
  9
$DIMSAH
 70
     0
  9
$DIMBLK1
  1

  9
$DIMBLK2
  1

  9
$DIMSTYLE
  2
ISO-25
  9
$DIMCLRD
 70
     0
  9
$DIMCLRE
 70
     0
  9
$DIMCLRT
 70
     0
  9
$DIMTFAC
 40
1.0
  9
$DIMGAP
 40
0.625
  9
$DIMJUST
 70
     0
  9
$DIMSD1
 70
     0
  9
$DIMSD2
 70
     0
  9
$DIMTOLJ
 70
     0
  9
$DIMTZIN
 70
     8
  9
$DIMALTZ
 70
     0
  9
$DIMALTTZ
 70
     0
  9
$DIMUPT
 70
     0
  9
$DIMDEC
 70
     2
  9
$DIMTDEC
 70
     2
  9
$DIMALTU
 70
     2
  9
$DIMALTTD
 70
     3
  9
$DIMTXSTY
  7
Standard
  9
$DIMAUNIT
 70
     0
  9
$DIMADEC
 70
     0
  9
$DIMALTRND
 40
0.0
  9
$DIMAZIN
 70
     0
  9
$DIMDSEP
 70
    44
  9
$DIMATFIT
 70
     3
  9
$DIMFRAC
 70
     0
  9
$DIMLDRBLK
  1

  9
$DIMLUNIT
 70
     2
  9
$DIMLWD
 70
    -2
  9
$DIMLWE
 70
    -2
  9
$DIMTMOVE
 70
     0
  9
$LUNITS
 70
     2
  9
$LUPREC
 70
     4
  9
$SKETCHINC
 40
1.0
  9
$FILLETRAD
 40
10.0
  9
$AUNITS
 70
     0
  9
$AUPREC
 70
     0
  9
$MENU
  1
.
  9
$ELEVATION
 40
0.0
  9
$PELEVATION
 40
0.0
  9
$THICKNESS
 40
0.0
  9
$LIMCHECK
 70
     0
  9
$CHAMFERA
 40
10.0
  9
$CHAMFERB
 40
10.0
  9
$CHAMFERC
 40
20.0
  9
$CHAMFERD
 40
0.0
  9
$SKPOLY
 70
     0
  9
$TDCREATE
 40
2453447.447222858
  9
$TDUCREATE
 40
2453447.405556192
  9
$TDUPDATE
 40
2453447.448083495
  9
$TDUUPDATE
 40
2453447.406416828
  9
$TDINDWG
 40
0.0008609954
  9
$TDUSRTIMER
 40
0.0008609954
  9
$USRTIMER
 70
     1
  9
$ANGBASE
 50
0.0
  9
$ANGDIR
 70
     0
  9
$PDMODE
 70
     0
  9
$PDSIZE
 40
0.0
  9
$PLINEWID
 40
0.0
  9
$SPLFRAME
 70
     0
  9
$SPLINETYPE
 70
     6
  9
$SPLINESEGS
 70
     8
  9
$HANDSEED
  5
1fffff
  9
$SURFTAB1
 70
     6
  9
$SURFTAB2
 70
     6
  9
$SURFTYPE
 70
     6
  9
$SURFU
 70
     6
  9
$SURFV
 70
     6
  9
$UCSBASE
  2

  9
$UCSNAME
  2

  9
$UCSORG
 10
0.0
 20
0.0
 30
0.0
  9
$UCSXDIR
 10
1.0
 20
0.0
 30
0.0
  9
$UCSYDIR
 10
0.0
 20
1.0
 30
0.0
  9
$UCSORTHOREF
  2

  9
$UCSORTHOVIEW
 70
     0
  9
$UCSORGTOP
 10
0.0
 20
0.0
 30
0.0
  9
$UCSORGBOTTOM
 10
0.0
 20
0.0
 30
0.0
  9
$UCSORGLEFT
 10
0.0
 20
0.0
 30
0.0
  9
$UCSORGRIGHT
 10
0.0
 20
0.0
 30
0.0
  9
$UCSORGFRONT
 10
0.0
 20
0.0
 30
0.0
  9
$UCSORGBACK
 10
0.0
 20
0.0
 30
0.0
  9
$PUCSBASE
  2

  9
$PUCSNAME
  2

  9
$PUCSORG
 10
0.0
 20
0.0
 30
0.0
  9
$PUCSXDIR
 10
1.0
 20
0.0
 30
0.0
  9
$PUCSYDIR
 10
0.0
 20
1.0
 30
0.0
  9
$PUCSORTHOREF
  2

  9
$PUCSORTHOVIEW
 70
     0
  9
$PUCSORGTOP
 10
0.0
 20
0.0
 30
0.0
  9
$PUCSORGBOTTOM
 10
0.0
 20
0.0
 30
0.0
  9
$PUCSORGLEFT
 10
0.0
 20
0.0
 30
0.0
  9
$PUCSORGRIGHT
 10
0.0
 20
0.0
 30
0.0
  9
$PUCSORGFRONT
 10
0.0
 20
0.0
 30
0.0
  9
$PUCSORGBACK
 10
0.0
 20
0.0
 30
0.0
  9
$USERI1
 70
     0
  9
$USERI2
 70
     0
  9
$USERI3
 70
     0
  9
$USERI4
 70
     0
  9
$USERI5
 70
     0
  9
$USERR1
 40
0.0
  9
$USERR2
 40
0.0
  9
$USERR3
 40
0.0
  9
$USERR4
 40
0.0
  9
$USERR5
 40
0.0
  9
$WORLDVIEW
 70
     1
  9
$SHADEDGE
 70
     3
  9
$SHADEDIF
 70
    70
  9
$TILEMODE
 70
     1
  9
$MAXACTVP
 70
    64
  9
$PINSBASE
 10
0.0
 20
0.0
 30
0.0
  9
$PLIMCHECK
 70
     0
  9
$PEXTMIN
 10
1.000000000000000E+20
 20
1.000000000000000E+20
 30
1.000000000000000E+20
  9
$PEXTMAX
 10
-1.000000000000000E+20
 20
-1.000000000000000E+20
 30
-1.000000000000000E+20
  9
$PLIMMIN
 10
0.0
 20
0.0
  9
$PLIMMAX
 10
420.0
 20
297.0
  9
$UNITMODE
 70
     0
  9
$VISRETAIN
 70
     1
  9
$PLINEGEN
 70
     0
  9
$PSLTSCALE
 70
     1
  9
$TREEDEPTH
 70
  3020
  9
$CMLSTYLE
  2
Standard
  9
$CMLJUST
 70
     0
  9
$CMLSCALE
 40
20.0
  9
$PROXYGRAPHICS
 70
     1
  9
$MEASUREMENT
 70
 1
  9
$CELWEIGHT
370
    -1
  9
$ENDCAPS
280
     0
  9
$JOINSTYLE
280
     0
  9
$LWDISPLAY
290
     0
  9
$INSUNITS
 70
 4
  9
$HYPERLINKBASE
  1

  9
$STYLESHEET
  1

  9
$XEDIT
290
     1
  9
$CEPSNTYPE
380
     0
  9
$PSTYLEMODE
290
     1
  9
$FINGERPRINTGUID
  2
{263749A0-F7E4-4E00-99C4-5223964DCB80}
  9
$VERSIONGUID
  2
{FD2825F6-CB40-4E95-8D6E-D4AFC8C62ADF}
  9
$EXTNAMES
290
     1
  9
$PSVPSCALE
 40
0.0
  9
$OLESTARTUP
290
     0
  0
ENDSEC
  0
SECTION
  2
CLASSES
  0
CLASS
  1
ACDBDICTIONARYWDFLT
  2
AcDbDictionaryWithDefault
  3
ObjectDBX Classes
 90
        0
 91
        1
280
     0
281
     0
  0
CLASS
  1
RASTERVARIABLES
  2
AcDbRasterVariables
  3
ISM
 90
        0
 91
        1
280
     0
281
     0
  0
CLASS
  1
IMAGEDEF
  2
AcDbRasterImageDef
  3
ISM
 90
        0
 91
        1
280
     0
281
     0
  0
CLASS
  1
IMAGEDEF_REACTOR
  2
AcDbRasterImageDefReactor
  3
ISM
 90
        1
 91
        1
280
     0
281
     0
  0
CLASS
  1
IMAGE
  2
AcDbRasterImage
  3
ISM
 90
     2175
 91
        1
280
     0
281
     1
  0
CLASS
  1
MATERIAL
  2
AcDbMaterial
  3
ObjectDBX Classes
 90
     1153
 91
        3
280
     0
281
     0
  0
CLASS
  1
VISUALSTYLE
  2
AcDbVisualStyle
  3
ObjectDBX Classes
 90
     4095
 91
       24
280
     0
281
     0
  0
CLASS
  1
TABLESTYLE
  2
AcDbTableStyle
  3
ObjectDBX Classes
 90
     4095
 91
        1
280
     0
281
     0
  0
CLASS
  1
SCALE
  2
AcDbScale
  3
ObjectDBX Classes
 90
     1153
 91
       17
280
     0
281
     0
  0
CLASS
  1
MLEADERSTYLE
  2
AcDbMLeaderStyle
  3
ACDB_MLEADERSTYLE_CLASS
 90
     4095
 91
        1
280
     0
281
     0
  0
CLASS
  1
ACDBSECTIONVIEWSTYLE
  2
AcDbSectionViewStyle
  3
ObjectDBX Classes
 90
     1025
 91
        1
280
     0
281
     0
  0
CLASS
  1
ACDBDETAILVIEWSTYLE
  2
AcDbDetailViewStyle
  3
ObjectDBX Classes
 90
     1025
 91
        1
280
     0
281
     0
  0
CLASS
  1
DICTIONARYVAR
  2
AcDbDictionaryVar
  3
ObjectDBX Classes
 90
        0
 91
        6
280
     0
281
     0
  0
CLASS
  1
CELLSTYLEMAP
  2
AcDbCellStyleMap
  3
ObjectDBX Classes
 90
     1152
 91
        1
280
     0
281
     0
  0
ENDSEC
  0
SECTION
  2
TABLES
  0
TABLE
  2
VPORT
  5
8
330
0
100
AcDbSymbolTable
 70
     3
  0
VPORT
  5
34
330
8
100
AcDbSymbolTableRecord
100
AcDbViewportTableRecord
  2
*Active
 70
     0
 10
0.0
 20
0.0
 11
1.0
 21
1.0
 12
81.721448
 22
95.380492
 13
0.0
 23
0.0
 14
10.0
 24
10.0
 15
10.0
 25
10.0
 16
0.0
 26
0.0
 36
1.0
 17
0.0
 27
0.0
 37
0.0
 40
190.760985
 41
1.000000
 42
50.0
 43
0.0
 44
0.0
 50
0.0
 51
0.0
 71
     0
 72
   100
 73
     1
 74
     3
 75
     0
 76
     0
 77
     0
 78
     0
281
     0
 65
     1
110
0.0
120
0.0
130
0.0
111
1.0
121
0.0
131
0.0
112
0.0
122
1.0
132
0.0
 79
     0
146
0.0
  0
ENDTAB
  0
TABLE
  2
LTYPE
  5
5
330
0
100
AcDbSymbolTable
 70
     1
  0
LTYPE
  5
14
330
5
100
AcDbSymbolTableRecord
100
AcDbLinetypeTableRecord
  2
ByBlock
 70
     0
  3

 72
    65
 73
     0
 40
0.0
  0
LTYPE
  5
15
330
5
100
AcDbSymbolTableRecord
100
AcDbLinetypeTableRecord
  2
ByLayer
 70
     0
  3

 72
    65
 73
     0
 40
0.0
  0
LTYPE
  5
16
330
5
100
AcDbSymbolTableRecord
100
AcDbLinetypeTableRecord
  2
Continuous
 70
     0
  3
Solid line
 72
    65
 73
     0
 40
0.0
  0
LTYPE
  5
2E
330
5
100
AcDbSymbolTableRecord
100
AcDbLinetypeTableRecord
  2
ACAD_ISO02W100
 70
     0
  3
ISO dash __ __ __ __ __ __ __ __ __ __ __ __ __
 72
    65
 73
     2
 40
15.0
 49
12.0
 74
     0
 49
-3.0
 74
     0
  0
LTYPE
   5
30
330
5
100
AcDbSymbolTableRecord
100
AcDbLinetypeTableRecord
  2
ACAD_ISO07W100
 70
     0
  3
ISO dot . . . . . . . . . . . . . . . . . . . .
 72
    65
 73
     2
 40
3.0
 49
0.0
 74
     0
 49
-3.0
 74
     0
  0
LTYPE
  5
31
330
5
100
AcDbSymbolTableRecord
100
AcDbLinetypeTableRecord
  2
ACAD_ISO10W100
 70
     0
  3
ISO dash dot __ . __ . __ . __ . __ . __ . __ .
 72
    65
 73
     4
 40
18.0
 49
12.0
 74
     0
 49
-3.0
 74
     0
 49
0.0
 74
     0
 49
-3.0
 74
     0
  0
LTYPE
  5
32
330
5
100
AcDbSymbolTableRecord
100
AcDbLinetypeTableRecord
  2
ACAD_ISO12W100
 70
     0
  3
ISO dash double-dot __ . . __ . . __ . . __ . .
 72
    65
 73
     6
 40
21.0
 49
12.0
 74
     0
 49
-3.0
 74
     0
 49
0.0
 74
     0
 49
-3.0
 74
     0
 49
0.0
 74
     0
 49
-3.0
 74
     0
0
ENDTAB
  0
TABLE
  2
LAYER
5
b0
330
0
100
AcDbSymbolTable
 70
 2
  0
LAYER
5
b1
330
2
100
AcDbSymbolTableRecord
100
AcDbLayerTableRecord
  2
0
 70
     0
 62
  7
  6
Continuous
370
    -3
390
F
  0
LAYER
5
b2
330
2
100
AcDbSymbolTableRecord
100
AcDbLayerTableRecord
  2
\U+0043\U+0061\U+0070\U+0061\U+0020\U+0031
 70
     0
 62
  7
  6
Continuous
370
    -3
390
F
  0
ENDTAB
  0
TABLE
  2
STYLE
  5
3
330
0
100
AcDbSymbolTable
 70
     1
  0
STYLE
  5
11
330
3
100
AcDbSymbolTableRecord
100
AcDbTextStyleTableRecord
  2
Standard
 70
     0
 40
0.0
 41
1.0
 50
0.0
 71
     0
 42
2.5
  3
txt
  4

  0
STYLE
  5
1b0
330
3
100
AcDbSymbolTableRecord
100
AcDbTextStyleTableRecord
  2
Helvetica
 70
     0
 40
0.0
 41
1.0
 50
0.0
 71
     0
 42
0.2
  3
ARIAL.TTF
  4

1001
ACAD
1000
Arial
1071
       34
 0
STYLE
  5
1b1
330
3
100
AcDbSymbolTableRecord
100
AcDbTextStyleTableRecord
  2
Times-Roman
 70
     0
 40
0.0
 41
1.0
 50
0.0
 71
     0
 42
0.2
  3
TIMES.TTF
  4

1001
ACAD
1000
Times New Roman
1071
       34
 0
ENDTAB
  0
TABLE
  2
VIEW
  5
6
330
0
100
AcDbSymbolTable
 70
     0
  0
ENDTAB
  0
TABLE
  2
UCS
  5
7
330
0
100
AcDbSymbolTable
 70
     0
  0
ENDTAB
  0
TABLE
  2
APPID
  5
9
330
0
100
AcDbSymbolTable
 70
     1
  0
APPID
  5
12
330
9
100
AcDbSymbolTableRecord
100
AcDbRegAppTableRecord
  2
ACAD
 70
     0
  0
ENDTAB
  0
TABLE
  2
DIMSTYLE
  5
A
330
0
100
AcDbSymbolTable
 70
     1
100
AcDbDimStyleTable
 71
     0
  0
DIMSTYLE
105
27
330
A
100
AcDbSymbolTableRecord
100
AcDbDimStyleTableRecord
  2
ISO-25
 70
     0
 41
2.5
 42
0.625
 43
3.75
 44
1.25
 73
     0
 74
     0
 77
     1
 78
     8
140
2.5
141
2.5
143
0.03937007874016
147
0.625
171
     3
172
     1
271
     2
272
     2
274
     3
278
    44
283
     0
284
     8
340
11
  0
ENDTAB
  0
TABLE
  2
BLOCK_RECORD
  5
1
330
0
100
AcDbSymbolTable
 70
     1
  0
BLOCK_RECORD
  5
1F
330
1
100
AcDbSymbolTableRecord
100
AcDbBlockTableRecord
  2
*Model_Space
340
22
  0
BLOCK_RECORD
  5
1B
330
1
100
AcDbSymbolTableRecord
100
AcDbBlockTableRecord
  2
*Paper_Space
340
1E
  0
BLOCK_RECORD
  5
23
330
1
100
AcDbSymbolTableRecord
100
AcDbBlockTableRecord
  2
*Paper_Space0
340
26
  0
ENDTAB
  0
ENDSEC
  0
SECTION
  2
BLOCKS
  0
BLOCK
  5
20
330
1F
100
AcDbEntity
  8
0
100
AcDbBlockBegin
  2
*Model_Space
 70
     0
 10
0.0
 20
0.0
 30
0.0
  3
*Model_Space
  1

  0
ENDBLK
  5
21
330
1F
100
AcDbEntity
  8
0
100
AcDbBlockEnd
  0
BLOCK
  5
1C
330
1B
100
AcDbEntity
 67
     1
  8
0
100
AcDbBlockBegin
  2
*Paper_Space
 70
     0
 10
0.0
 20
0.0
 30
0.0
  3
*Paper_Space
  1

  0
ENDBLK
  5
1D
330
1B
100
AcDbEntity
 67
     1
  8
0
100
AcDbBlockEnd
  0
BLOCK
  5
24
330
23
100
AcDbEntity
  8
0
100
AcDbBlockBegin
  2
*Paper_Space0
 70
     0
 10
0.0
 20
0.0
 30
0.0
  3
*Paper_Space0
  1

  0
ENDBLK
  5
25
330
23
100
AcDbEntity
  8
0
100
AcDbBlockEnd
  0
ENDSEC
  0
SECTION
  2
ENTITIES
0
HATCH
5
1f0
100
AcDbEntity
8
\U+0043\U+0061\U+0070\U+0061\U+0020\U+0031
62
7
420
16711422
100
AcDbHatch
10
0.0
20
0.0
30
0.0
210
0.0
220
0.0
230
1.0
2
SOLID
70
1
71
0
91
1
92
3
72
0
73
1
93
259
 10
7.378806
 20
105.237315
 10
24.897186
 20
109.616910
 10
24.898975
 20
109.606279
 10
24.904443
 20
109.574843
 10
24.913741
 20
109.523288
 10
24.927018
 20
109.452302
 10
24.944425
 20
109.362570
 10
24.966112
 20
109.254781
 10
24.992230
 20
109.129619
 10
25.022929
 20
108.987773
 10
25.058360
 20
108.829928
 10
25.098672
 20
108.656771
 10
25.144016
 20
108.468989
 10
25.194543
 20
108.267269
 10
25.250403
 20
108.052297
 10
25.311746
 20
107.824760
 10
25.378722
 20
107.585344
 10
25.451483
 20
107.334736
 10
25.530178
 20
107.073623
 10
25.614957
 20
106.802692
 10
25.705972
 20
106.522628
 10
25.803371
 20
106.234120
 10
25.907307
 20
105.937852
 10
26.017929
 20
105.634513
 10
26.135387
 20
105.324788
 10
26.259832
 20
105.009365
 10
26.391414
 20
104.688929
 10
26.530284
 20
104.364168
 10
26.676592
 20
104.035768
 10
26.830488
 20
103.704417
 10
26.992122
 20
103.370799
 10
27.161646
 20
103.035603
 10
27.339209
 20
102.699515
 10
27.524961
 20
102.363221
 10
27.719054
 20
102.027409
 10
27.921637
 20
101.692764
 10
28.132861
 20
101.359974
 10
28.352877
 20
101.029724
 10
28.581833
 20
100.702703
 10
28.819882
 20
100.379596
 10
29.067173
 20
100.061089
 10
29.323856
 20
99.747871
 10
29.590083
 20
99.440627
 10
29.866002
 20
99.140044
 10
30.151766
 20
98.846808
 10
30.447524
 20
98.561607
 10
30.753425
 20
98.285126
 10
31.069622
 20
98.018053
 10
31.396264
 20
97.761075
 10
31.733502
 20
97.514877
 10
32.081485
 20
97.280147
 10
32.440364
 20
97.057570
 10
32.810290
 20
96.847835
 10
33.191414
 20
96.651627
 10
33.583884
 20
96.469633
 10
33.987852
 20
96.302540
 10
34.403468
 20
96.151035
 10
34.830883
 20
96.015803
 10
35.270246
 20
95.897532
 10
35.721708
 20
95.796909
 10
36.185420
 20
95.714619
 10
36.661532
 20
95.651350
 10
37.150194
 20
95.607788
 10
37.651556
 20
95.584620
 10
38.165769
 20
95.582533
 10
38.692984
 20
95.602213
 10
39.220200
 20
95.642366
 10
39.734415
 20
95.700838
 10
40.235779
 20
95.777023
 10
40.724442
 20
95.870314
 10
41.200554
 20
95.980105
 10
41.664267
 20
96.105789
 10
42.115729
 20
96.246760
 10
42.555093
 20
96.402412
 10
42.982507
 20
96.572138
 10
43.398124
 20
96.755331
 10
43.802091
 20
96.951385
 10
44.194561
 20
97.159694
 10
44.575684
 20
97.379651
 10
44.945609
 20
97.610650
 10
45.304488
 20
97.852084
 10
45.652471
 20
98.103347
 10
45.989707
 20
98.363832
 10
46.316348
 20
98.632933
 10
46.632543
 20
98.910044
 10
46.938444
 20
99.194557
 10
47.234200
 20
99.485867
 10
47.519962
 20
99.783366
 10
47.795880
 20
100.086450
 10
48.062105
 20
100.394510
 10
48.318787
 20
100.706941
 10
48.566076
 20
101.023136
 10
48.804123
 20
101.342489
 10
49.033078
 20
101.664393
 10
49.253091
 20
101.988241
 10
49.464313
 20
102.313428
 10
49.666894
 20
102.639347
 10
49.860985
 20
102.965391
 10
50.046736
 20
103.290954
 10
50.224296
 20
103.615430
 10
50.393818
 20
103.938211
 10
50.555450
 20
104.258692
 10
50.709344
 20
104.576266
 10
50.855650
 20
104.890326
 10
50.994517
 20
105.200267
 10
51.126097
 20
105.505481
 10
51.250540
 20
105.805363
 10
51.367996
 20
106.099305
 10
51.478616
 20
106.386702
 10
51.582550
 20
106.666946
 10
51.679948
 20
106.939431
 10
51.770960
 20
107.203552
 10
51.855738
 20
107.458701
 10
51.934431
 20
107.704272
 10
52.007190
 20
107.939658
 10
52.074164
 20
108.164253
 10
52.135506
 20
108.377451
 10
52.191364
 20
108.578645
 10
52.241890
 20
108.767229
 10
52.287233
 20
108.942595
 10
52.327544
 20
109.104139
 10
52.362973
 20
109.251252
 10
52.393671
 20
109.383330
 10
52.419788
 20
109.499765
 10
52.441475
 20
109.599950
 10
52.458881
 20
109.683280
 10
52.472158
 20
109.749148
 10
52.481455
 20
109.796947
 10
52.486923
 20
109.826072
 10
70.226202
 20
104.580408
 10
69.971579
 20
103.198498
 10
69.744221
 20
101.852615
 10
69.543384
 20
100.542322
 10
69.368325
 20
99.267186
 10
69.218298
 20
98.026770
 10
69.092560
 20
96.820639
 10
68.990366
 20
95.648359
 10
68.910972
 20
94.509495
 10
68.853634
 20
93.403611
 10
68.817608
 20
92.330272
 10
68.802150
 20
91.289043
 10
68.806515
 20
90.279489
 10
68.829958
 20
89.301174
 10
68.871737
 20
88.353665
 10
68.931107
 20
87.436525
 10
69.007322
 20
86.549320
 10
69.099641
 20
85.691614
 10
69.207317
 20
84.862972
 10
69.329607
 20
84.062960
 10
69.465766
 20
83.291142
 10
69.615051
 20
82.547083
 10
69.776717
 20
81.830348
 10
69.950020
 20
81.140501
 10
70.134216
 20
80.477108
 10
70.328560
 20
79.839734
 10
70.532309
 20
79.227943
 10
70.744717
 20
78.641301
 10
70.965042
 20
78.079371
 10
71.192538
 20
77.541720
 10
71.426462
 20
77.027912
 10
71.666069
 20
76.537512
 10
71.910615
 20
76.070085
 10
72.159355
 20
75.625196
 10
72.411547
 20
75.202409
 10
72.666444
 20
74.801289
 10
72.923304
 20
74.421402
 10
73.181382
 20
74.062313
 10
73.439934
 20
73.723585
 10
73.698215
 20
73.404785
 10
73.955481
 20
73.105476
 10
74.210989
 20
72.825225
 10
74.463993
 20
72.563595
 10
74.713750
 20
72.320152
 10
74.959516
 20
72.094460
 10
75.200545
 20
71.886085
 10
75.436095
 20
71.694591
 10
75.665421
 20
71.519543
 10
75.887778
 20
71.360507
 10
76.102422
 20
71.217046
 10
76.308610
 20
71.088727
 10
76.505597
 20
70.975113
 10
76.692638
 20
70.875770
 10
76.868990
 20
70.790262
 10
77.033908
 20
70.718155
 10
77.186649
 20
70.659014
 10
77.326467
 20
70.612402
 10
77.452619
 20
70.577886
 10
77.564360
 20
70.555030
 10
77.660947
 20
70.543399
 10
77.741635
 20
70.542557
 10
77.805679
 20
70.552070
 10
77.852336
 20
70.571503
 10
77.880862
 20
70.600421
 10
77.890511
 20
70.638388
 10
77.950695
 20
-0.038806
 10
-0.066604
 20
0.564691
 10
-0.066604
 20
70.200485
 10
-0.027895
 20
70.208945
 10
0.019350
 20
70.220454
 10
0.084176
 20
70.237648
 10
0.165821
 20
70.261149
 10
0.263524
 20
70.291580
 10
0.376526
 20
70.329564
 10
0.504064
 20
70.375725
 10
0.645380
 20
70.430685
 10
0.799712
 20
70.495068
 10
0.966300
 20
70.569497
 10
1.144383
 20
70.654594
 10
1.333200
 20
70.750984
 10
1.531991
 20
70.859289
 10
1.739995
 20
70.980132
 10
1.956452
 20
71.114137
 10
2.180600
 20
71.261926
 10
2.411681
 20
71.424123
 10
2.648931
 20
71.601350
 10
2.891593
 20
71.794231
 10
3.138903
 20
72.003390
 10
3.390103
 20
72.229448
 10
3.644431
 20
72.473030
 10
3.901127
 20
72.734758
 10
4.159430
 20
73.015255
 10
4.418580
 20
73.315146
 10
4.677816
 20
73.635052
 10
4.936377
 20
73.975596
 10
5.193503
 20
74.337403
 10
5.448432
 20
74.721095
 10
5.700406
 20
75.127295
 10
5.948662
 20
75.556626
 10
6.192441
 20
76.009712
 10
6.430982
 20
76.487175
 10
6.663523
 20
76.989639
 10
6.889305
 20
77.517727
 10
7.107567
 20
78.072061
 10
7.317549
 20
78.653266
 10
7.518489
 20
79.261964
 10
7.709627
 20
79.898778
 10
7.890203
 20
80.564332
 10
8.059456
 20
81.259248
 10
8.216624
 20
81.984150
 10
8.360949
 20
82.739660
 10
8.491669
 20
83.526403
 10
8.608023
 20
84.345000
 10
8.709251
 20
85.196075
 10
8.794592
 20
86.080252
 10
8.863286
 20
86.998153
 10
8.914572
 20
87.950402
 10
8.947690
 20
88.937621
 10
8.961878
 20
89.960434
 10
8.956377
 20
91.019464
 10
8.930425
 20
92.115334
 10
8.883263
 20
93.248666
 10
8.814128
 20
94.420085
 10
8.722262
 20
95.630214
 10
8.606903
 20
96.879675
 10
8.467290
 20
98.169091
 10
8.302664
 20
99.499086
 10
8.112263
 20
100.870283
 10
7.895326
 20
102.283305
 10
7.651094
 20
103.738774
97
1
330
30
75
2
76
0
98
1
10
0.0
20
0.0
0
LWPOLYLINE
5
1f1
100
AcDbEntity
8
\U+0043\U+0061\U+0070\U+0061\U+0020\U+0031
62
7
370
0
100
AcDbPolyline
66
1
90
259
70
1
39
0.000000
 10
7.378806
 20
105.237315
 10
24.897186
 20
109.616910
 10
24.898975
 20
109.606279
 10
24.904443
 20
109.574843
 10
24.913741
 20
109.523288
 10
24.927018
 20
109.452302
 10
24.944425
 20
109.362570
 10
24.966112
 20
109.254781
 10
24.992230
 20
109.129619
 10
25.022929
 20
108.987773
 10
25.058360
 20
108.829928
 10
25.098672
 20
108.656771
 10
25.144016
 20
108.468989
 10
25.194543
 20
108.267269
 10
25.250403
 20
108.052297
 10
25.311746
 20
107.824760
 10
25.378722
 20
107.585344
 10
25.451483
 20
107.334736
 10
25.530178
 20
107.073623
 10
25.614957
 20
106.802692
 10
25.705972
 20
106.522628
 10
25.803371
 20
106.234120
 10
25.907307
 20
105.937852
 10
26.017929
 20
105.634513
 10
26.135387
 20
105.324788
 10
26.259832
 20
105.009365
 10
26.391414
 20
104.688929
 10
26.530284
 20
104.364168
 10
26.676592
 20
104.035768
 10
26.830488
 20
103.704417
 10
26.992122
 20
103.370799
 10
27.161646
 20
103.035603
 10
27.339209
 20
102.699515
 10
27.524961
 20
102.363221
 10
27.719054
 20
102.027409
 10
27.921637
 20
101.692764
 10
28.132861
 20
101.359974
 10
28.352877
 20
101.029724
 10
28.581833
 20
100.702703
 10
28.819882
 20
100.379596
 10
29.067173
 20
100.061089
 10
29.323856
 20
99.747871
 10
29.590083
 20
99.440627
 10
29.866002
 20
99.140044
 10
30.151766
 20
98.846808
 10
30.447524
 20
98.561607
 10
30.753425
 20
98.285126
 10
31.069622
 20
98.018053
 10
31.396264
 20
97.761075
 10
31.733502
 20
97.514877
 10
32.081485
 20
97.280147
 10
32.440364
 20
97.057570
 10
32.810290
 20
96.847835
 10
33.191414
 20
96.651627
 10
33.583884
 20
96.469633
 10
33.987852
 20
96.302540
 10
34.403468
 20
96.151035
 10
34.830883
 20
96.015803
 10
35.270246
 20
95.897532
 10
35.721708
 20
95.796909
 10
36.185420
 20
95.714619
 10
36.661532
 20
95.651350
 10
37.150194
 20
95.607788
 10
37.651556
 20
95.584620
 10
38.165769
 20
95.582533
 10
38.692984
 20
95.602213
 10
39.220200
 20
95.642366
 10
39.734415
 20
95.700838
 10
40.235779
 20
95.777023
 10
40.724442
 20
95.870314
 10
41.200554
 20
95.980105
 10
41.664267
 20
96.105789
 10
42.115729
 20
96.246760
 10
42.555093
 20
96.402412
 10
42.982507
 20
96.572138
 10
43.398124
 20
96.755331
 10
43.802091
 20
96.951385
 10
44.194561
 20
97.159694
 10
44.575684
 20
97.379651
 10
44.945609
 20
97.610650
 10
45.304488
 20
97.852084
 10
45.652471
 20
98.103347
 10
45.989707
 20
98.363832
 10
46.316348
 20
98.632933
 10
46.632543
 20
98.910044
 10
46.938444
 20
99.194557
 10
47.234200
 20
99.485867
 10
47.519962
 20
99.783366
 10
47.795880
 20
100.086450
 10
48.062105
 20
100.394510
 10
48.318787
 20
100.706941
 10
48.566076
 20
101.023136
 10
48.804123
 20
101.342489
 10
49.033078
 20
101.664393
 10
49.253091
 20
101.988241
 10
49.464313
 20
102.313428
 10
49.666894
 20
102.639347
 10
49.860985
 20
102.965391
 10
50.046736
 20
103.290954
 10
50.224296
 20
103.615430
 10
50.393818
 20
103.938211
 10
50.555450
 20
104.258692
 10
50.709344
 20
104.576266
 10
50.855650
 20
104.890326
 10
50.994517
 20
105.200267
 10
51.126097
 20
105.505481
 10
51.250540
 20
105.805363
 10
51.367996
 20
106.099305
 10
51.478616
 20
106.386702
 10
51.582550
 20
106.666946
 10
51.679948
 20
106.939431
 10
51.770960
 20
107.203552
 10
51.855738
 20
107.458701
 10
51.934431
 20
107.704272
 10
52.007190
 20
107.939658
 10
52.074164
 20
108.164253
 10
52.135506
 20
108.377451
 10
52.191364
 20
108.578645
 10
52.241890
 20
108.767229
 10
52.287233
 20
108.942595
 10
52.327544
 20
109.104139
 10
52.362973
 20
109.251252
 10
52.393671
 20
109.383330
 10
52.419788
 20
109.499765
 10
52.441475
 20
109.599950
 10
52.458881
 20
109.683280
 10
52.472158
 20
109.749148
 10
52.481455
 20
109.796947
 10
52.486923
 20
109.826072
 10
70.226202
 20
104.580408
 10
69.971579
 20
103.198498
 10
69.744221
 20
101.852615
 10
69.543384
 20
100.542322
 10
69.368325
 20
99.267186
 10
69.218298
 20
98.026770
 10
69.092560
 20
96.820639
 10
68.990366
 20
95.648359
 10
68.910972
 20
94.509495
 10
68.853634
 20
93.403611
 10
68.817608
 20
92.330272
 10
68.802150
 20
91.289043
 10
68.806515
 20
90.279489
 10
68.829958
 20
89.301174
 10
68.871737
 20
88.353665
 10
68.931107
 20
87.436525
 10
69.007322
 20
86.549320
 10
69.099641
 20
85.691614
 10
69.207317
 20
84.862972
 10
69.329607
 20
84.062960
 10
69.465766
 20
83.291142
 10
69.615051
 20
82.547083
 10
69.776717
 20
81.830348
 10
69.950020
 20
81.140501
 10
70.134216
 20
80.477108
 10
70.328560
 20
79.839734
 10
70.532309
 20
79.227943
 10
70.744717
 20
78.641301
 10
70.965042
 20
78.079371
 10
71.192538
 20
77.541720
 10
71.426462
 20
77.027912
 10
71.666069
 20
76.537512
 10
71.910615
 20
76.070085
 10
72.159355
 20
75.625196
 10
72.411547
 20
75.202409
 10
72.666444
 20
74.801289
 10
72.923304
 20
74.421402
 10
73.181382
 20
74.062313
 10
73.439934
 20
73.723585
 10
73.698215
 20
73.404785
 10
73.955481
 20
73.105476
 10
74.210989
 20
72.825225
 10
74.463993
 20
72.563595
 10
74.713750
 20
72.320152
 10
74.959516
 20
72.094460
 10
75.200545
 20
71.886085
 10
75.436095
 20
71.694591
 10
75.665421
 20
71.519543
 10
75.887778
 20
71.360507
 10
76.102422
 20
71.217046
 10
76.308610
 20
71.088727
 10
76.505597
 20
70.975113
 10
76.692638
 20
70.875770
 10
76.868990
 20
70.790262
 10
77.033908
 20
70.718155
 10
77.186649
 20
70.659014
 10
77.326467
 20
70.612402
 10
77.452619
 20
70.577886
 10
77.564360
 20
70.555030
 10
77.660947
 20
70.543399
 10
77.741635
 20
70.542557
 10
77.805679
 20
70.552070
 10
77.852336
 20
70.571503
 10
77.880862
 20
70.600421
 10
77.890511
 20
70.638388
 10
77.950695
 20
-0.038806
 10
-0.066604
 20
0.564691
 10
-0.066604
 20
70.200485
 10
-0.027895
 20
70.208945
 10
0.019350
 20
70.220454
 10
0.084176
 20
70.237648
 10
0.165821
 20
70.261149
 10
0.263524
 20
70.291580
 10
0.376526
 20
70.329564
 10
0.504064
 20
70.375725
 10
0.645380
 20
70.430685
 10
0.799712
 20
70.495068
 10
0.966300
 20
70.569497
 10
1.144383
 20
70.654594
 10
1.333200
 20
70.750984
 10
1.531991
 20
70.859289
 10
1.739995
 20
70.980132
 10
1.956452
 20
71.114137
 10
2.180600
 20
71.261926
 10
2.411681
 20
71.424123
 10
2.648931
 20
71.601350
 10
2.891593
 20
71.794231
 10
3.138903
 20
72.003390
 10
3.390103
 20
72.229448
 10
3.644431
 20
72.473030
 10
3.901127
 20
72.734758
 10
4.159430
 20
73.015255
 10
4.418580
 20
73.315146
 10
4.677816
 20
73.635052
 10
4.936377
 20
73.975596
 10
5.193503
 20
74.337403
 10
5.448432
 20
74.721095
 10
5.700406
 20
75.127295
 10
5.948662
 20
75.556626
 10
6.192441
 20
76.009712
 10
6.430982
 20
76.487175
 10
6.663523
 20
76.989639
 10
6.889305
 20
77.517727
 10
7.107567
 20
78.072061
 10
7.317549
 20
78.653266
 10
7.518489
 20
79.261964
 10
7.709627
 20
79.898778
 10
7.890203
 20
80.564332
 10
8.059456
 20
81.259248
 10
8.216624
 20
81.984150
 10
8.360949
 20
82.739660
 10
8.491669
 20
83.526403
 10
8.608023
 20
84.345000
 10
8.709251
 20
85.196075
 10
8.794592
 20
86.080252
 10
8.863286
 20
86.998153
 10
8.914572
 20
87.950402
 10
8.947690
 20
88.937621
 10
8.961878
 20
89.960434
 10
8.956377
 20
91.019464
 10
8.930425
 20
92.115334
 10
8.883263
 20
93.248666
 10
8.814128
 20
94.420085
 10
8.722262
 20
95.630214
 10
8.606903
 20
96.879675
 10
8.467290
 20
98.169091
 10
8.302664
 20
99.499086
 10
8.112263
 20
100.870283
 10
7.895326
 20
102.283305
 10
7.651094
 20
103.738774
0
HATCH
5
1f2
100
AcDbEntity
8
\U+0043\U+0061\U+0070\U+0061\U+0020\U+0031
62
7
420
16711422
100
AcDbHatch
10
0.0
20
0.0
30
0.0
210
0.0
220
0.0
230
1.0
2
SOLID
70
1
71
0
91
1
92
3
72
0
73
1
93
168
 10
92.804403
 20
107.692014
 10
110.322783
 20
112.071609
 10
110.328339
 20
112.039258
 10
110.345533
 20
111.944675
 10
110.375156
 20
111.791559
 10
110.417998
 20
111.583611
 10
111.277255
 20
111.278934
 10
112.136513
 20
110.995004
 10
112.995770
 20
110.731855
 10
113.855027
 20
110.489519
 10
114.714284
 20
110.268032
 10
115.573541
 20
110.067425
 10
116.432798
 20
109.887733
 10
117.292054
 20
109.728988
 10
118.151311
 20
109.591226
 10
119.010568
 20
109.474478
 10
119.869826
 20
109.378779
 10
120.729083
 20
109.304161
 10
121.588340
 20
109.250660
 10
122.447598
 20
109.218307
 10
123.306856
 20
109.207137
 10
124.166114
 20
109.217182
 10
125.025373
 20
109.248477
 10
125.884631
 20
109.301055
 10
126.743891
 20
109.374950
 10
127.603150
 20
109.470194
 10
128.462410
 20
109.586822
 10
129.321671
 20
109.724867
 10
130.180932
 20
109.884362
 10
131.040194
 20
110.065341
 10
131.899456
 20
110.267837
 10
132.758718
 20
110.491885
 10
133.617982
 20
110.737517
 10
134.477246
 20
111.004766
 10
135.336511
 20
111.293667
 10
136.195776
 20
111.604253
 10
137.055042
 20
111.936557
 10
137.914309
 20
112.290613
 10
155.651800
 20
107.035106
 10
155.397176
 20
105.653197
 10
155.169819
 20
104.307313
 10
154.968982
 20
102.997021
 10
154.793922
 20
101.721884
 10
154.643895
 20
100.481468
 10
154.518157
 20
99.275338
 10
154.415963
 20
98.103058
 10
154.336570
 20
96.964193
 10
154.279232
 20
95.858309
 10
154.243206
 20
94.784970
 10
154.227747
 20
93.743741
 10
154.232112
 20
92.734187
 10
154.255556
 20
91.755873
 10
154.297335
 20
90.808363
 10
154.356704
 20
89.891223
 10
154.432920
 20
89.004018
 10
154.525238
 20
88.146312
 10
154.632914
 20
87.317671
 10
154.755204
 20
86.517659
 10
154.891364
 20
85.745840
 10
155.040649
 20
85.001781
 10
155.202315
 20
84.285046
 10
155.375618
 20
83.595199
 10
155.559813
 20
82.931806
 10
155.754158
 20
82.294432
 10
155.957906
 20
81.682641
 10
156.170315
 20
81.095999
 10
156.390639
 20
80.534070
 10
156.618136
 20
79.996419
 10
156.852059
 20
79.482611
 10
157.091666
 20
78.992211
 10
157.336212
 20
78.524784
 10
157.584953
 20
78.079894
 10
157.837144
 20
77.657107
 10
158.092042
 20
77.255988
 10
158.348902
 20
76.876101
 10
158.606980
 20
76.517011
 10
158.865531
 20
76.178283
 10
159.123812
 20
75.859483
 10
159.381079
 20
75.560175
 10
159.636586
 20
75.279923
 10
159.889591
 20
75.018293
 10
160.139348
 20
74.774850
 10
160.385113
 20
74.549158
 10
160.626143
 20
74.340783
 10
160.861693
 20
74.149289
 10
161.091018
 20
73.974242
 10
161.313375
 20
73.815205
 10
161.528020
 20
73.671745
 10
161.734208
 20
73.543425
 10
161.931194
 20
73.429811
 10
162.118236
 20
73.330468
 10
162.294588
 20
73.244961
 10
162.459506
 20
73.172854
 10
162.612246
 20
73.113712
 10
162.752065
 20
73.067101
 10
162.878216
 20
73.032584
 10
162.989958
 20
73.009728
 10
163.086544
 20
72.998097
 10
163.167232
 20
72.997255
 10
163.231277
 20
73.006769
 10
163.277934
 20
73.026202
 10
163.306459
 20
73.055119
 10
163.316109
 20
73.093086
 10
163.376293
 20
2.415893
 10
85.358993
 20
3.019390
 10
85.358993
 20
72.655183
 10
85.397702
 20
72.663643
 10
85.444948
 20
72.675153
 10
85.509773
 20
72.692346
 10
85.591418
 20
72.715847
 10
85.689122
 20
72.746278
 10
85.802123
 20
72.784262
 10
85.929662
 20
72.830423
 10
86.070978
 20
72.885383
 10
86.225310
 20
72.949766
 10
86.391897
 20
73.024195
 10
86.569980
 20
73.109293
 10
86.758797
 20
73.205682
 10
86.957588
 20
73.313987
 10
87.165592
 20
73.434831
 10
87.382049
 20
73.568835
 10
87.606198
 20
73.716624
 10
87.837278
 20
73.878821
 10
88.074529
 20
74.056048
 10
88.317190
 20
74.248930
 10
88.564501
 20
74.458088
 10
88.815701
 20
74.684146
 10
89.070029
 20
74.927728
 10
89.326725
 20
75.189456
 10
89.585028
 20
75.469954
 10
89.844178
 20
75.769844
 10
90.103413
 20
76.089750
 10
90.361974
 20
76.430295
 10
90.619100
 20
76.792101
 10
90.874030
 20
77.175793
 10
91.126003
 20
77.581993
 10
91.374260
 20
78.011324
 10
91.618039
 20
78.464410
 10
91.856579
 20
78.941873
 10
92.089121
 20
79.444337
 10
92.314903
 20
79.972425
 10
92.533165
 20
80.526760
 10
92.743146
 20
81.107964
 10
92.944086
 20
81.716662
 10
93.135225
 20
82.353477
 10
93.315800
 20
83.019030
 10
93.485053
 20
83.713946
 10
93.642222
 20
84.438848
 10
93.786547
 20
85.194358
 10
93.917266
 20
85.981101
 10
94.033620
 20
86.799698
 10
94.134849
 20
87.650774
 10
94.220190
 20
88.534951
 10
94.288884
 20
89.452852
 10
94.340170
 20
90.405100
 10
94.373287
 20
91.392319
 10
94.387476
 20
92.415132
 10
94.381974
 20
93.474162
 10
94.356023
 20
94.570032
 10
94.308860
 20
95.703365
 10
94.239726
 20
96.874784
 10
94.147859
 20
98.084912
 10
94.032500
 20
99.334373
 10
93.892888
 20
100.623789
 10
93.728261
 20
101.953784
 10
93.537860
 20
103.324981
 10
93.320924
 20
104.738003
 10
93.076692
 20
106.193473
97
1
330
30
75
2
76
0
98
1
10
0.0
20
0.0
0
LWPOLYLINE
5
1f3
100
AcDbEntity
8
\U+0043\U+0061\U+0070\U+0061\U+0020\U+0031
62
7
370
0
100
AcDbPolyline
66
1
90
168
70
1
39
0.000000
 10
92.804403
 20
107.692014
 10
110.322783
 20
112.071609
 10
110.328339
 20
112.039258
 10
110.345533
 20
111.944675
 10
110.375156
 20
111.791559
 10
110.417998
 20
111.583611
 10
111.277255
 20
111.278934
 10
112.136513
 20
110.995004
 10
112.995770
 20
110.731855
 10
113.855027
 20
110.489519
 10
114.714284
 20
110.268032
 10
115.573541
 20
110.067425
 10
116.432798
 20
109.887733
 10
117.292054
 20
109.728988
 10
118.151311
 20
109.591226
 10
119.010568
 20
109.474478
 10
119.869826
 20
109.378779
 10
120.729083
 20
109.304161
 10
121.588340
 20
109.250660
 10
122.447598
 20
109.218307
 10
123.306856
 20
109.207137
 10
124.166114
 20
109.217182
 10
125.025373
 20
109.248477
 10
125.884631
 20
109.301055
 10
126.743891
 20
109.374950
 10
127.603150
 20
109.470194
 10
128.462410
 20
109.586822
 10
129.321671
 20
109.724867
 10
130.180932
 20
109.884362
 10
131.040194
 20
110.065341
 10
131.899456
 20
110.267837
 10
132.758718
 20
110.491885
 10
133.617982
 20
110.737517
 10
134.477246
 20
111.004766
 10
135.336511
 20
111.293667
 10
136.195776
 20
111.604253
 10
137.055042
 20
111.936557
 10
137.914309
 20
112.290613
 10
155.651800
 20
107.035106
 10
155.397176
 20
105.653197
 10
155.169819
 20
104.307313
 10
154.968982
 20
102.997021
 10
154.793922
 20
101.721884
 10
154.643895
 20
100.481468
 10
154.518157
 20
99.275338
 10
154.415963
 20
98.103058
 10
154.336570
 20
96.964193
 10
154.279232
 20
95.858309
 10
154.243206
 20
94.784970
 10
154.227747
 20
93.743741
 10
154.232112
 20
92.734187
 10
154.255556
 20
91.755873
 10
154.297335
 20
90.808363
 10
154.356704
 20
89.891223
 10
154.432920
 20
89.004018
 10
154.525238
 20
88.146312
 10
154.632914
 20
87.317671
 10
154.755204
 20
86.517659
 10
154.891364
 20
85.745840
 10
155.040649
 20
85.001781
 10
155.202315
 20
84.285046
 10
155.375618
 20
83.595199
 10
155.559813
 20
82.931806
 10
155.754158
 20
82.294432
 10
155.957906
 20
81.682641
 10
156.170315
 20
81.095999
 10
156.390639
 20
80.534070
 10
156.618136
 20
79.996419
 10
156.852059
 20
79.482611
 10
157.091666
 20
78.992211
 10
157.336212
 20
78.524784
 10
157.584953
 20
78.079894
 10
157.837144
 20
77.657107
 10
158.092042
 20
77.255988
 10
158.348902
 20
76.876101
 10
158.606980
 20
76.517011
 10
158.865531
 20
76.178283
 10
159.123812
 20
75.859483
 10
159.381079
 20
75.560175
 10
159.636586
 20
75.279923
 10
159.889591
 20
75.018293
 10
160.139348
 20
74.774850
 10
160.385113
 20
74.549158
 10
160.626143
 20
74.340783
 10
160.861693
 20
74.149289
 10
161.091018
 20
73.974242
 10
161.313375
 20
73.815205
 10
161.528020
 20
73.671745
 10
161.734208
 20
73.543425
 10
161.931194
 20
73.429811
 10
162.118236
 20
73.330468
 10
162.294588
 20
73.244961
 10
162.459506
 20
73.172854
 10
162.612246
 20
73.113712
 10
162.752065
 20
73.067101
 10
162.878216
 20
73.032584
 10
162.989958
 20
73.009728
 10
163.086544
 20
72.998097
 10
163.167232
 20
72.997255
 10
163.231277
 20
73.006769
 10
163.277934
 20
73.026202
 10
163.306459
 20
73.055119
 10
163.316109
 20
73.093086
 10
163.376293
 20
2.415893
 10
85.358993
 20
3.019390
 10
85.358993
 20
72.655183
 10
85.397702
 20
72.663643
 10
85.444948
 20
72.675153
 10
85.509773
 20
72.692346
 10
85.591418
 20
72.715847
 10
85.689122
 20
72.746278
 10
85.802123
 20
72.784262
 10
85.929662
 20
72.830423
 10
86.070978
 20
72.885383
 10
86.225310
 20
72.949766
 10
86.391897
 20
73.024195
 10
86.569980
 20
73.109293
 10
86.758797
 20
73.205682
 10
86.957588
 20
73.313987
 10
87.165592
 20
73.434831
 10
87.382049
 20
73.568835
 10
87.606198
 20
73.716624
 10
87.837278
 20
73.878821
 10
88.074529
 20
74.056048
 10
88.317190
 20
74.248930
 10
88.564501
 20
74.458088
 10
88.815701
 20
74.684146
 10
89.070029
 20
74.927728
 10
89.326725
 20
75.189456
 10
89.585028
 20
75.469954
 10
89.844178
 20
75.769844
 10
90.103413
 20
76.089750
 10
90.361974
 20
76.430295
 10
90.619100
 20
76.792101
 10
90.874030
 20
77.175793
 10
91.126003
 20
77.581993
 10
91.374260
 20
78.011324
 10
91.618039
 20
78.464410
 10
91.856579
 20
78.941873
 10
92.089121
 20
79.444337
 10
92.314903
 20
79.972425
 10
92.533165
 20
80.526760
 10
92.743146
 20
81.107964
 10
92.944086
 20
81.716662
 10
93.135225
 20
82.353477
 10
93.315800
 20
83.019030
 10
93.485053
 20
83.713946
 10
93.642222
 20
84.438848
 10
93.786547
 20
85.194358
 10
93.917266
 20
85.981101
 10
94.033620
 20
86.799698
 10
94.134849
 20
87.650774
 10
94.220190
 20
88.534951
 10
94.288884
 20
89.452852
 10
94.340170
 20
90.405100
 10
94.373287
 20
91.392319
 10
94.387476
 20
92.415132
 10
94.381974
 20
93.474162
 10
94.356023
 20
94.570032
 10
94.308860
 20
95.703365
 10
94.239726
 20
96.874784
 10
94.147859
 20
98.084912
 10
94.032500
 20
99.334373
 10
93.892888
 20
100.623789
 10
93.728261
 20
101.953784
 10
93.537860
 20
103.324981
 10
93.320924
 20
104.738003
 10
93.076692
 20
106.193473
0
HATCH
5
1f4
100
AcDbEntity
8
\U+0043\U+0061\U+0070\U+0061\U+0020\U+0031
62
7
420
16711422
100
AcDbHatch
10
0.0
20
0.0
30
0.0
210
0.0
220
0.0
230
1.0
2
SOLID
70
1
71
0
91
1
92
3
72
0
73
1
93
6
 10
45.971495
 20
131.162884
 10
116.281094
 20
131.130992
 10
114.204785
 20
126.633287
 10
116.281094
 20
121.864896
 10
45.971495
 20
121.896787
 10
47.832892
 20
126.572786
97
1
330
30
75
2
76
0
98
1
10
0.0
20
0.0
0
LWPOLYLINE
5
1f5
100
AcDbEntity
8
\U+0043\U+0061\U+0070\U+0061\U+0020\U+0031
62
7
370
0
100
AcDbPolyline
66
1
90
6
70
1
39
0.000000
 10
45.971495
 20
131.162884
 10
116.281094
 20
131.130992
 10
114.204785
 20
126.633287
 10
116.281094
 20
121.864896
 10
45.971495
 20
121.896787
 10
47.832892
 20
126.572786
0
HATCH
5
1f6
100
AcDbEntity
8
\U+0043\U+0061\U+0070\U+0061\U+0020\U+0031
62
7
420
16711422
100
AcDbHatch
10
0.0
20
0.0
30
0.0
210
0.0
220
0.0
230
1.0
2
SOLID
70
1
71
0
91
1
92
3
72
0
73
1
93
132
 10
42.191905
 20
176.116192
 10
41.379827
 20
176.123098
 10
40.578761
 20
176.103029
 10
39.788557
 20
176.056906
 10
39.009068
 20
175.985651
 10
38.240146
 20
175.890184
 10
37.481644
 20
175.771426
 10
36.733414
 20
175.630299
 10
35.995307
 20
175.467723
 10
35.267176
 20
175.284619
 10
34.548873
 20
175.081909
 10
33.840250
 20
174.860513
 10
33.141160
 20
174.621353
 10
32.451454
 20
174.365348
 10
31.770986
 20
174.093422
 10
31.099606
 20
173.806493
 10
30.437167
 20
173.505485
 10
29.783522
 20
173.191316
 10
29.138522
 20
172.864909
 10
28.502020
 20
172.527185
 10
27.873868
 20
172.179064
 10
27.253918
 20
171.821467
 10
26.642022
 20
171.455316
 10
26.038032
 20
171.081532
 10
25.441802
 20
170.701035
 10
24.853181
 20
170.314747
 10
24.272024
 20
169.923588
 10
23.698182
 20
169.528480
 10
23.131507
 20
169.130343
 10
22.571852
 20
168.730100
 10
22.019068
 20
168.328669
 10
21.473008
 20
167.926974
 10
20.933525
 20
167.525934
 10
20.400469
 20
167.126470
 10
19.873694
 20
166.729505
 10
19.353051
 20
166.335958
 10
18.838393
 20
165.946751
 10
18.329572
 20
165.562804
 10
17.826440
 20
165.185040
 10
17.328849
 20
164.814378
 10
16.836652
 20
164.451739
 10
16.349700
 20
164.098046
 10
15.867846
 20
163.754218
 10
15.390942
 20
163.421178
 10
14.918840
 20
163.099845
 10
14.451393
 20
162.791141
 10
13.988452
 20
162.495986
 10
13.529869
 20
162.215303
 10
13.075498
 20
161.950011
 10
12.625189
 20
161.701033
 10
12.178796
 20
161.469288
 10
11.736170
 20
161.255698
 10
11.297164
 20
161.061184
 10
10.861629
 20
160.886667
 10
10.429419
 20
160.733068
 10
10.000384
 20
160.601308
 10
9.574378
 20
160.492308
 10
9.151252
 20
160.406989
 10
8.730859
 20
160.346272
 10
8.313051
 20
160.311079
 10
7.897679
 20
160.302329
 10
7.484597
 20
160.320944
 10
7.073656
 20
160.367845
 10
6.664709
 20
160.443953
 10
6.257607
 20
160.550190
 10
15.199783
 20
143.162690
 10
16.855687
 20
140.181894
 10
68.687209
 20
140.016301
 10
78.457284
 20
160.715784
 10
78.029487
 20
160.615597
 10
77.599868
 20
160.547224
 10
77.168300
 20
160.509648
 10
76.734659
 20
160.501853
 10
76.298820
 20
160.522824
 10
75.860657
 20
160.571544
 10
75.420046
 20
160.646999
 10
74.976862
 20
160.748172
 10
74.530979
 20
160.874047
 10
74.082272
 20
161.023609
 10
73.630616
 20
161.195841
 10
73.175887
 20
161.389729
 10
72.717959
 20
161.604255
 10
72.256707
 20
161.838405
 10
71.792006
 20
162.091162
 10
71.323730
 20
162.361511
 10
70.851756
 20
162.648436
 10
70.375957
 20
162.950921
 10
69.896209
 20
163.267950
 10
69.412387
 20
163.598508
 10
68.924365
 20
163.941578
 10
68.432018
 20
164.296145
 10
67.935222
 20
164.661193
 10
67.433851
 20
165.035707
 10
66.927781
 20
165.418669
 10
66.416885
 20
165.809066
 10
65.901040
 20
166.205880
 10
65.380120
 20
166.608096
 10
64.853999
 20
167.014698
 10
64.322554
 20
167.424670
 10
63.785658
 20
167.836997
 10
63.243187
 20
168.250663
 10
62.695015
 20
168.664651
 10
62.141018
 20
169.077947
 10
61.581071
 20
169.489534
 10
61.015048
 20
169.898396
 10
60.442824
 20
170.303518
 10
59.864274
 20
170.703884
 10
59.279274
 20
171.098478
 10
58.687698
 20
171.486285
 10
58.089421
 20
171.866287
 10
57.484317
 20
172.237470
 10
56.872263
 20
172.598818
 10
56.253132
 20
172.949315
 10
55.626801
 20
173.287945
 10
54.993142
 20
173.613693
 10
54.352033
 20
173.925542
 10
53.703347
 20
174.222477
 10
53.046959
 20
174.503481
 10
52.382745
 20
174.767540
 10
51.710579
 20
175.013637
 10
51.030336
 20
175.240757
 10
50.341891
 20
175.447883
 10
49.645120
 20
175.634000
 10
48.939896
 20
175.798093
 10
48.226095
 20
175.939144
 10
47.503592
 20
176.056139
 10
46.772262
 20
176.148062
 10
46.031980
 20
176.213896
 10
45.282620
 20
176.252626
 10
44.524057
 20
176.263237
 10
43.756167
 20
176.244712
 10
42.978825
 20
176.196035
97
1
330
30
75
2
76
0
98
1
10
0.0
20
0.0
0
LWPOLYLINE
5
1f7
100
AcDbEntity
8
\U+0043\U+0061\U+0070\U+0061\U+0020\U+0031
62
7
370
0
100
AcDbPolyline
66
1
90
132
70
1
39
0.000000
 10
42.191905
 20
176.116192
 10
41.379827
 20
176.123098
 10
40.578761
 20
176.103029
 10
39.788557
 20
176.056906
 10
39.009068
 20
175.985651
 10
38.240146
 20
175.890184
 10
37.481644
 20
175.771426
 10
36.733414
 20
175.630299
 10
35.995307
 20
175.467723
 10
35.267176
 20
175.284619
 10
34.548873
 20
175.081909
 10
33.840250
 20
174.860513
 10
33.141160
 20
174.621353
 10
32.451454
 20
174.365348
 10
31.770986
 20
174.093422
 10
31.099606
 20
173.806493
 10
30.437167
 20
173.505485
 10
29.783522
 20
173.191316
 10
29.138522
 20
172.864909
 10
28.502020
 20
172.527185
 10
27.873868
 20
172.179064
 10
27.253918
 20
171.821467
 10
26.642022
 20
171.455316
 10
26.038032
 20
171.081532
 10
25.441802
 20
170.701035
 10
24.853181
 20
170.314747
 10
24.272024
 20
169.923588
 10
23.698182
 20
169.528480
 10
23.131507
 20
169.130343
 10
22.571852
 20
168.730100
 10
22.019068
 20
168.328669
 10
21.473008
 20
167.926974
 10
20.933525
 20
167.525934
 10
20.400469
 20
167.126470
 10
19.873694
 20
166.729505
 10
19.353051
 20
166.335958
 10
18.838393
 20
165.946751
 10
18.329572
 20
165.562804
 10
17.826440
 20
165.185040
 10
17.328849
 20
164.814378
 10
16.836652
 20
164.451739
 10
16.349700
 20
164.098046
 10
15.867846
 20
163.754218
 10
15.390942
 20
163.421178
 10
14.918840
 20
163.099845
 10
14.451393
 20
162.791141
 10
13.988452
 20
162.495986
 10
13.529869
 20
162.215303
 10
13.075498
 20
161.950011
 10
12.625189
 20
161.701033
 10
12.178796
 20
161.469288
 10
11.736170
 20
161.255698
 10
11.297164
 20
161.061184
 10
10.861629
 20
160.886667
 10
10.429419
 20
160.733068
 10
10.000384
 20
160.601308
 10
9.574378
 20
160.492308
 10
9.151252
 20
160.406989
 10
8.730859
 20
160.346272
 10
8.313051
 20
160.311079
 10
7.897679
 20
160.302329
 10
7.484597
 20
160.320944
 10
7.073656
 20
160.367845
 10
6.664709
 20
160.443953
 10
6.257607
 20
160.550190
 10
15.199783
 20
143.162690
 10
16.855687
 20
140.181894
 10
68.687209
 20
140.016301
 10
78.457284
 20
160.715784
 10
78.029487
 20
160.615597
 10
77.599868
 20
160.547224
 10
77.168300
 20
160.509648
 10
76.734659
 20
160.501853
 10
76.298820
 20
160.522824
 10
75.860657
 20
160.571544
 10
75.420046
 20
160.646999
 10
74.976862
 20
160.748172
 10
74.530979
 20
160.874047
 10
74.082272
 20
161.023609
 10
73.630616
 20
161.195841
 10
73.175887
 20
161.389729
 10
72.717959
 20
161.604255
 10
72.256707
 20
161.838405
 10
71.792006
 20
162.091162
 10
71.323730
 20
162.361511
 10
70.851756
 20
162.648436
 10
70.375957
 20
162.950921
 10
69.896209
 20
163.267950
 10
69.412387
 20
163.598508
 10
68.924365
 20
163.941578
 10
68.432018
 20
164.296145
 10
67.935222
 20
164.661193
 10
67.433851
 20
165.035707
 10
66.927781
 20
165.418669
 10
66.416885
 20
165.809066
 10
65.901040
 20
166.205880
 10
65.380120
 20
166.608096
 10
64.853999
 20
167.014698
 10
64.322554
 20
167.424670
 10
63.785658
 20
167.836997
 10
63.243187
 20
168.250663
 10
62.695015
 20
168.664651
 10
62.141018
 20
169.077947
 10
61.581071
 20
169.489534
 10
61.015048
 20
169.898396
 10
60.442824
 20
170.303518
 10
59.864274
 20
170.703884
 10
59.279274
 20
171.098478
 10
58.687698
 20
171.486285
 10
58.089421
 20
171.866287
 10
57.484317
 20
172.237470
 10
56.872263
 20
172.598818
 10
56.253132
 20
172.949315
 10
55.626801
 20
173.287945
 10
54.993142
 20
173.613693
 10
54.352033
 20
173.925542
 10
53.703347
 20
174.222477
 10
53.046959
 20
174.503481
 10
52.382745
 20
174.767540
 10
51.710579
 20
175.013637
 10
51.030336
 20
175.240757
 10
50.341891
 20
175.447883
 10
49.645120
 20
175.634000
 10
48.939896
 20
175.798093
 10
48.226095
 20
175.939144
 10
47.503592
 20
176.056139
 10
46.772262
 20
176.148062
 10
46.031980
 20
176.213896
 10
45.282620
 20
176.252626
 10
44.524057
 20
176.263237
 10
43.756167
 20
176.244712
 10
42.978825
 20
176.196035
0
HATCH
5
1f8
100
AcDbEntity
8
\U+0043\U+0061\U+0070\U+0061\U+0020\U+0031
62
7
420
16711422
100
AcDbHatch
10
0.0
20
0.0
30
0.0
210
0.0
220
0.0
230
1.0
2
SOLID
70
1
71
0
91
1
92
3
72
0
73
1
93
5
 10
70.649712
 20
144.174210
 10
14.873393
 20
143.797302
 10
15.199783
 20
143.162690
 10
16.855687
 20
140.181894
 10
68.687209
 20
140.016301
97
1
330
30
75
2
76
0
98
1
10
0.0
20
0.0
0
LWPOLYLINE
5
1f9
100
AcDbEntity
8
\U+0043\U+0061\U+0070\U+0061\U+0020\U+0031
62
7
370
0
100
AcDbPolyline
66
1
90
5
70
1
39
0.000000
 10
70.649712
 20
144.174210
 10
14.873393
 20
143.797302
 10
15.199783
 20
143.162690
 10
16.855687
 20
140.181894
 10
68.687209
 20
140.016301
0
HATCH
5
1fa
100
AcDbEntity
8
\U+0043\U+0061\U+0070\U+0061\U+0020\U+0031
62
7
420
16711422
100
AcDbHatch
10
0.0
20
0.0
30
0.0
210
0.0
220
0.0
230
1.0
2
SOLID
70
1
71
0
91
1
92
3
72
0
73
1
93
132
 10
121.850397
 20
177.276301
 10
121.038321
 20
177.283207
 10
120.237256
 20
177.263139
 10
119.447054
 20
177.217016
 10
118.667566
 20
177.145761
 10
117.898646
 20
177.050294
 10
117.140145
 20
176.931536
 10
116.391915
 20
176.790409
 10
115.653809
 20
176.627833
 10
114.925679
 20
176.444729
 10
114.207377
 20
176.242019
 10
113.498755
 20
176.020623
 10
112.799665
 20
175.781462
 10
112.109960
 20
175.525458
 10
111.429492
 20
175.253531
 10
110.758113
 20
174.966603
 10
110.095674
 20
174.665594
 10
109.442029
 20
174.351426
 10
108.797030
 20
174.025019
 10
108.160528
 20
173.687294
 10
107.532376
 20
173.339173
 10
106.912426
 20
172.981577
 10
106.300530
 20
172.615426
 10
105.696540
 20
172.241642
 10
105.100309
 20
171.861145
 10
104.511689
 20
171.474857
 10
103.930532
 20
171.083698
 10
103.356689
 20
170.688590
 10
102.790014
 20
170.290453
 10
102.230359
 20
169.890209
 10
101.677575
 20
169.488779
 10
101.131514
 20
169.087083
 10
100.592030
 20
168.686043
 10
100.058974
 20
168.286580
 10
99.532198
 20
167.889615
 10
99.011555
 20
167.496068
 10
98.496897
 20
167.106860
 10
97.988075
 20
166.722914
 10
97.484942
 20
166.345149
 10
96.987351
 20
165.974487
 10
96.495153
 20
165.611849
 10
96.008201
 20
165.258156
 10
95.526346
 20
164.914328
 10
95.049442
 20
164.581287
 10
94.577339
 20
164.259954
 10
94.109891
 20
163.951250
 10
93.646950
 20
163.656096
 10
93.188367
 20
163.375413
 10
92.733995
 20
163.110121
 10
92.283686
 20
162.861142
 10
91.837292
 20
162.629398
 10
91.394666
 20
162.415808
 10
90.955659
 20
162.221294
 10
90.520124
 20
162.046777
 10
90.087913
 20
161.893178
 10
89.658878
 20
161.761418
 10
89.232872
 20
161.652418
 10
88.809746
 20
161.567099
 10
88.389352
 20
161.506382
 10
87.971544
 20
161.471188
 10
87.556172
 20
161.462438
 10
87.143090
 20
161.481054
 10
86.732149
 20
161.527955
 10
86.323201
 20
161.604063
 10
85.916100
 20
161.710299
 10
94.858311
 20
144.322800
 10
96.514214
 20
141.342004
 10
148.345701
 20
141.176410
 10
158.115811
 20
161.875893
 10
157.688013
 20
161.775705
 10
157.258392
 20
161.707330
 10
156.826823
 20
161.669753
 10
156.393181
 20
161.661957
 10
155.957340
 20
161.682926
 10
155.519177
 20
161.731646
 10
155.078565
 20
161.807100
 10
154.635379
 20
161.908271
 10
154.189495
 20
162.034146
 10
153.740787
 20
162.183707
 10
153.289131
 20
162.355938
 10
152.834401
 20
162.549825
 10
152.376472
 20
162.764351
 10
151.915220
 20
162.998501
 10
151.450518
 20
163.251257
 10
150.982242
 20
163.521606
 10
150.510267
 20
163.808531
 10
150.034468
 20
164.111015
 10
149.554720
 20
164.428044
 10
149.070897
 20
164.758602
 10
148.582875
 20
165.101672
 10
148.090529
 20
165.456239
 10
147.593732
 20
165.821287
 10
147.092361
 20
166.195801
 10
146.586291
 20
166.578764
 10
146.075395
 20
166.969160
 10
145.559550
 20
167.365974
 10
145.038629
 20
167.768191
 10
144.512509
 20
168.174793
 10
143.981063
 20
168.584766
 10
143.444168
 20
168.997093
 10
142.901696
 20
169.410759
 10
142.353525
 20
169.824748
 10
141.799528
 20
170.238044
 10
141.239581
 20
170.649632
 10
140.673557
 20
171.058495
 10
140.101334
 20
171.463617
 10
139.522784
 20
171.863984
 10
138.937784
 20
172.258578
 10
138.346207
 20
172.646385
 10
137.747930
 20
173.026388
 10
137.142827
 20
173.397572
 10
136.530772
 20
173.758920
 10
135.911641
 20
174.109418
 10
135.285309
 20
174.448049
 10
134.651651
 20
174.773797
 10
134.010541
 20
175.085646
 10
133.361854
 20
175.382581
 10
132.705466
 20
175.663587
 10
132.041252
 20
175.927646
 10
131.369085
 20
176.173744
 10
130.688841
 20
176.400864
 10
130.000396
 20
176.607990
 10
129.303624
 20
176.794108
 10
128.598399
 20
176.958201
 10
127.884598
 20
177.099252
 10
127.162094
 20
177.216248
 10
126.430762
 20
177.308170
 10
125.690479
 20
177.374005
 10
124.941118
 20
177.412736
 10
124.182554
 20
177.423346
 10
123.414663
 20
177.404821
 10
122.637319
 20
177.356145
97
1
330
30
75
2
76
0
98
1
10
0.0
20
0.0
0
LWPOLYLINE
5
1fb
100
AcDbEntity
8
\U+0043\U+0061\U+0070\U+0061\U+0020\U+0031
62
7
370
0
100
AcDbPolyline
66
1
90
132
70
1
39
0.000000
 10
121.850397
 20
177.276301
 10
121.038321
 20
177.283207
 10
120.237256
 20
177.263139
 10
119.447054
 20
177.217016
 10
118.667566
 20
177.145761
 10
117.898646
 20
177.050294
 10
117.140145
 20
176.931536
 10
116.391915
 20
176.790409
 10
115.653809
 20
176.627833
 10
114.925679
 20
176.444729
 10
114.207377
 20
176.242019
 10
113.498755
 20
176.020623
 10
112.799665
 20
175.781462
 10
112.109960
 20
175.525458
 10
111.429492
 20
175.253531
 10
110.758113
 20
174.966603
 10
110.095674
 20
174.665594
 10
109.442029
 20
174.351426
 10
108.797030
 20
174.025019
 10
108.160528
 20
173.687294
 10
107.532376
 20
173.339173
 10
106.912426
 20
172.981577
 10
106.300530
 20
172.615426
 10
105.696540
 20
172.241642
 10
105.100309
 20
171.861145
 10
104.511689
 20
171.474857
 10
103.930532
 20
171.083698
 10
103.356689
 20
170.688590
 10
102.790014
 20
170.290453
 10
102.230359
 20
169.890209
 10
101.677575
 20
169.488779
 10
101.131514
 20
169.087083
 10
100.592030
 20
168.686043
 10
100.058974
 20
168.286580
 10
99.532198
 20
167.889615
 10
99.011555
 20
167.496068
 10
98.496897
 20
167.106860
 10
97.988075
 20
166.722914
 10
97.484942
 20
166.345149
 10
96.987351
 20
165.974487
 10
96.495153
 20
165.611849
 10
96.008201
 20
165.258156
 10
95.526346
 20
164.914328
 10
95.049442
 20
164.581287
 10
94.577339
 20
164.259954
 10
94.109891
 20
163.951250
 10
93.646950
 20
163.656096
 10
93.188367
 20
163.375413
 10
92.733995
 20
163.110121
 10
92.283686
 20
162.861142
 10
91.837292
 20
162.629398
 10
91.394666
 20
162.415808
 10
90.955659
 20
162.221294
 10
90.520124
 20
162.046777
 10
90.087913
 20
161.893178
 10
89.658878
 20
161.761418
 10
89.232872
 20
161.652418
 10
88.809746
 20
161.567099
 10
88.389352
 20
161.506382
 10
87.971544
 20
161.471188
 10
87.556172
 20
161.462438
 10
87.143090
 20
161.481054
 10
86.732149
 20
161.527955
 10
86.323201
 20
161.604063
 10
85.916100
 20
161.710299
 10
94.858311
 20
144.322800
 10
96.514214
 20
141.342004
 10
148.345701
 20
141.176410
 10
158.115811
 20
161.875893
 10
157.688013
 20
161.775705
 10
157.258392
 20
161.707330
 10
156.826823
 20
161.669753
 10
156.393181
 20
161.661957
 10
155.957340
 20
161.682926
 10
155.519177
 20
161.731646
 10
155.078565
 20
161.807100
 10
154.635379
 20
161.908271
 10
154.189495
 20
162.034146
 10
153.740787
 20
162.183707
 10
153.289131
 20
162.355938
 10
152.834401
 20
162.549825
 10
152.376472
 20
162.764351
 10
151.915220
 20
162.998501
 10
151.450518
 20
163.251257
 10
150.982242
 20
163.521606
 10
150.510267
 20
163.808531
 10
150.034468
 20
164.111015
 10
149.554720
 20
164.428044
 10
149.070897
 20
164.758602
 10
148.582875
 20
165.101672
 10
148.090529
 20
165.456239
 10
147.593732
 20
165.821287
 10
147.092361
 20
166.195801
 10
146.586291
 20
166.578764
 10
146.075395
 20
166.969160
 10
145.559550
 20
167.365974
 10
145.038629
 20
167.768191
 10
144.512509
 20
168.174793
 10
143.981063
 20
168.584766
 10
143.444168
 20
168.997093
 10
142.901696
 20
169.410759
 10
142.353525
 20
169.824748
 10
141.799528
 20
170.238044
 10
141.239581
 20
170.649632
 10
140.673557
 20
171.058495
 10
140.101334
 20
171.463617
 10
139.522784
 20
171.863984
 10
138.937784
 20
172.258578
 10
138.346207
 20
172.646385
 10
137.747930
 20
173.026388
 10
137.142827
 20
173.397572
 10
136.530772
 20
173.758920
 10
135.911641
 20
174.109418
 10
135.285309
 20
174.448049
 10
134.651651
 20
174.773797
 10
134.010541
 20
175.085646
 10
133.361854
 20
175.382581
 10
132.705466
 20
175.663587
 10
132.041252
 20
175.927646
 10
131.369085
 20
176.173744
 10
130.688841
 20
176.400864
 10
130.000396
 20
176.607990
 10
129.303624
 20
176.794108
 10
128.598399
 20
176.958201
 10
127.884598
 20
177.099252
 10
127.162094
 20
177.216248
 10
126.430762
 20
177.308170
 10
125.690479
 20
177.374005
 10
124.941118
 20
177.412736
 10
124.182554
 20
177.423346
 10
123.414663
 20
177.404821
 10
122.637319
 20
177.356145
0
HATCH
5
1fc
100
AcDbEntity
8
\U+0043\U+0061\U+0070\U+0061\U+0020\U+0031
62
7
420
16711422
100
AcDbHatch
10
0.0
20
0.0
30
0.0
210
0.0
220
0.0
230
1.0
2
SOLID
70
1
71
0
91
1
92
3
72
0
73
1
93
5
 10
150.308204
 20
145.334284
 10
94.531886
 20
144.957412
 10
94.858311
 20
144.322800
 10
96.514214
 20
141.342004
 10
148.345701
 20
141.176410
97
1
330
30
75
2
76
0
98
1
10
0.0
20
0.0
0
LWPOLYLINE
5
1fd
100
AcDbEntity
8
\U+0043\U+0061\U+0070\U+0061\U+0020\U+0031
62
7
370
0
100
AcDbPolyline
66
1
90
5
70
1
39
0.000000
 10
150.308204
 20
145.334284
 10
94.531886
 20
144.957412
 10
94.858311
 20
144.322800
 10
96.514214
 20
141.342004
 10
148.345701
 20
141.176410
0
LWPOLYLINE
5
1fe
100
AcDbEntity
8
0
62
7
370
0
100
AcDbPolyline
66
1
90
2
70
0
39
0.000000
 10
0.000000
 20
0.000000
 10
0.000000
 20
190.760985
0
LWPOLYLINE
5
1ff
100
AcDbEntity
8
0
62
7
370
0
100
AcDbPolyline
66
1
90
2
70
0
39
0.000000
 10
16.344290
 20
0.000000
 10
16.344290
 20
190.760985
0
LWPOLYLINE
5
200
100
AcDbEntity
8
0
62
7
370
0
100
AcDbPolyline
66
1
90
2
70
0
39
0.000000
 10
32.688579
 20
0.000000
 10
32.688579
 20
190.760985
0
LWPOLYLINE
5
201
100
AcDbEntity
8
0
62
7
370
0
100
AcDbPolyline
66
1
90
2
70
0
39
0.000000
 10
49.032869
 20
0.000000
 10
49.032869
 20
190.760985
0
LWPOLYLINE
5
202
100
AcDbEntity
8
0
62
7
370
0
100
AcDbPolyline
66
1
90
2
70
0
39
0.000000
 10
65.377159
 20
0.000000
 10
65.377159
 20
190.760985
0
LWPOLYLINE
5
203
100
AcDbEntity
8
0
62
7
370
0
100
AcDbPolyline
66
1
90
2
70
0
39
0.000000
 10
81.721448
 20
0.000000
 10
81.721448
 20
190.760985
0
LWPOLYLINE
5
204
100
AcDbEntity
8
0
62
7
370
0
100
AcDbPolyline
66
1
90
2
70
0
39
0.000000
 10
98.065738
 20
0.000000
 10
98.065738
 20
190.760985
0
LWPOLYLINE
5
205
100
AcDbEntity
8
0
62
7
370
0
100
AcDbPolyline
66
1
90
2
70
0
39
0.000000
 10
114.410028
 20
0.000000
 10
114.410028
 20
190.760985
0
LWPOLYLINE
5
206
100
AcDbEntity
8
0
62
7
370
0
100
AcDbPolyline
66
1
90
2
70
0
39
0.000000
 10
130.754318
 20
0.000000
 10
130.754318
 20
190.760985
0
LWPOLYLINE
5
207
100
AcDbEntity
8
0
62
7
370
0
100
AcDbPolyline
66
1
90
2
70
0
39
0.000000
 10
147.098607
 20
0.000000
 10
147.098607
 20
190.760985
0
LWPOLYLINE
5
208
100
AcDbEntity
8
0
62
7
370
0
100
AcDbPolyline
66
1
90
2
70
0
39
0.000000
 10
163.442897
 20
190.760985
 10
0.000000
 20
190.760985
0
LWPOLYLINE
5
209
100
AcDbEntity
8
0
62
7
370
0
100
AcDbPolyline
66
1
90
2
70
0
39
0.000000
 10
163.442897
 20
171.684886
 10
0.000000
 20
171.684886
0
LWPOLYLINE
5
20a
100
AcDbEntity
8
0
62
7
370
0
100
AcDbPolyline
66
1
90
2
70
0
39
0.000000
 10
163.442897
 20
152.608788
 10
0.000000
 20
152.608788
0
LWPOLYLINE
5
20b
100
AcDbEntity
8
0
62
7
370
0
100
AcDbPolyline
66
1
90
2
70
0
39
0.000000
 10
163.442897
 20
133.532690
 10
0.000000
 20
133.532690
0
LWPOLYLINE
5
20c
100
AcDbEntity
8
0
62
7
370
0
100
AcDbPolyline
66
1
90
2
70
0
39
0.000000
 10
163.442897
 20
114.456591
 10
0.000000
 20
114.456591
0
LWPOLYLINE
5
20d
100
AcDbEntity
8
0
62
7
370
0
100
AcDbPolyline
66
1
90
2
70
0
39
0.000000
 10
163.442897
 20
95.380493
 10
0.000000
 20
95.380493
0
LWPOLYLINE
5
20e
100
AcDbEntity
8
0
62
7
370
0
100
AcDbPolyline
66
1
90
2
70
0
39
0.000000
 10
163.442897
 20
76.304394
 10
0.000000
 20
76.304394
0
LWPOLYLINE
5
20f
100
AcDbEntity
8
0
62
7
370
0
100
AcDbPolyline
66
1
90
2
70
0
39
0.000000
 10
163.442897
 20
57.228296
 10
0.000000
 20
57.228296
0
LWPOLYLINE
5
210
100
AcDbEntity
8
0
62
7
370
0
100
AcDbPolyline
66
1
90
2
70
0
39
0.000000
 10
163.442897
 20
38.152197
 10
0.000000
 20
38.152197
0
LWPOLYLINE
5
211
100
AcDbEntity
8
0
62
7
370
0
100
AcDbPolyline
66
1
90
2
70
0
39
0.000000
 10
163.442897
 20
19.076099
 10
0.000000
 20
19.076099
0
ENDSEC
  0
SECTION
  2
OBJECTS
  0
DICTIONARY
  5
C
330
0
100
AcDbDictionary
281
     1
  3
ACAD_GROUP
350
D
  3
ACAD_PLOTSTYLENAME
350
E
  3
ACAD_MLINESTYLE
350
17
  3
ACAD_PLOTSETTINGS
350
19
  3
ACAD_LAYOUT
350
1A
  3
ACAD_IMAGE_DICT
350
2B
  3
ACAD_IMAGE_VARS
350
2C
  0
DICTIONARY
  5
D
102
{ACAD_REACTORS
330
C
102
}
330
C
100
AcDbDictionary
281
     1
  0
ACDBDICTIONARYWDFLT
  5
E
102
{ACAD_REACTORS
330
C
102
}
330
C
100
AcDbDictionary
281
     1
  3
Normal
350
F
100
AcDbDictionaryWithDefault
340
F
  0
DICTIONARY
  5
17
102
{ACAD_REACTORS
330
C
102
}
330
C
100
AcDbDictionary
281
     1
  3
Standard
350
18
  0
DICTIONARY
  5
19
102
{ACAD_REACTORS
330
C
102
}
330
C
100
AcDbDictionary
281
     1
  0
DICTIONARY
  5
1A
102
{ACAD_REACTORS
330
C
102
}
330
C
100
AcDbDictionary
281
     1
  3
Layout1
350
1E
  3
Model
350
22
  3
Layout2
350
26
  0
DICTIONARY
  5
2B
102
{ACAD_REACTORS
330
C
102
}
330
C
100
AcDbDictionary
281
     1
  0
RASTERVARIABLES
  5
2C
102
{ACAD_REACTORS
330
C
102
}
330
C
100
AcDbRasterVariables
 90
        0
 70
     0
 71
     1
 72
     1
  0
ACDBPLACEHOLDER
  5
F
102
{ACAD_REACTORS
330
E
102
}
330
E
  0
MLINESTYLE
  5
18
102
{ACAD_REACTORS
330
17
102
}
330
17
100
AcDbMlineStyle
  2
STANDARD
 70
     0
  3

 62
   256
 51
90.0
 52
90.0
 71
     2
 49
0.5
 62
   256
  6
BYLAYER
 49
-0.5
 62
   256
  6
BYLAYER
  0
LAYOUT
  5
1E
102
{ACAD_REACTORS
330
1A
102
}
330
1A
100
AcDbPlotSettings
  1

  2
HP LaserJet 4/NT4SERVER/Session 2
  4

  6

 40
0.0
 41
0.0
 42
0.0
 43
0.0
 44
0.0
 45
0.0
 46
0.0
 47
0.0
 48
0.0
 49
0.0
140
0.0
141
0.0
142
1.0
143
1.0
 70
   688
 72
     0
 73
     0
 74
     5
  7

 75
    16
147
1.0
148
0.0
149
0.0
100
AcDbLayout
  1
Layout1
 70
     1
 71
     1
 10
0.0
 20
0.0
 11
420.0
 21
297.0
 12
0.0
 22
0.0
 32
0.0
 14
1.000000000000000E+20
 24
1.000000000000000E+20
 34
1.000000000000000E+20
 15
-1.000000000000000E+20
 25
-1.000000000000000E+20
 35
-1.000000000000000E+20
146
0.0
 13
0.0
 23
0.0
 33
0.0
 16
1.0
 26
0.0
 36
0.0
 17
0.0
 27
1.0
 37
0.0
 76
     0
330
1B
  0
LAYOUT
  5
22
102
{ACAD_REACTORS
330
1A
102
}
330
1A
100
AcDbPlotSettings
  1

  2
HP LaserJet 4/NT4SERVER/Session 2
  4

  6

 40
0.0
 41
0.0
 42
0.0
 43
0.0
 44
0.0
 45
0.0
 46
0.0
 47
0.0
 48
0.0
 49
0.0
140
0.0
141
0.0
142
1.0
143
1.0
 70
  1712
 72
     0
 73
     0
 74
     0
  7

 75
     0
147
1.0
148
0.0
149
0.0
100
AcDbLayout
  1
Model
 70
     1
 71
     0
 10
0.0
 20
0.0
 11
12.0
 21
9.0
 12
0.0
 22
0.0
 32
0.0
 14
0.0
 24
0.0
 34
0.0
 15
0.0
 25
0.0
 35
0.0
146
0.0
 13
0.0
 23
0.0
 33
0.0
 16
1.0
 26
0.0
 36
0.0
 17
0.0
 27
1.0
 37
0.0
 76
     0
330
1F
  0
LAYOUT
  5
26
102
{ACAD_REACTORS
330
1A
102
}
330
1A
100
AcDbPlotSettings
  1

  2
HP LaserJet 4/NT4SERVER/Session 2
  4

  6

 40
0.0
 41
0.0
 42
0.0
 43
0.0
 44
0.0
 45
0.0
 46
0.0
 47
0.0
 48
0.0
 49
0.0
140
0.0
141
0.0
142
1.0
143
1.0
 70
   688
 72
     0
 73
     0
 74
     5
  7

 75
    16
147
1.0
148
0.0
149
0.0
100
AcDbLayout
  1
Layout2
 70
     1
 71
     2
 10
0.0
 20
0.0
 11
12.0
 21
9.0
 12
0.0
 22
0.0
 32
0.0
 14
0.0
 24
0.0
 34
0.0
 15
0.0
 25
0.0
 35
0.0
146
0.0
 13
0.0
 23
0.0
 33
0.0
 16
1.0
 26
0.0
 36
0.0
 17
0.0
 27
1.0
 37
0.0
 76
     0
330
23
  0
ENDSEC
  0
EOF
